ISO-10303-21;
HEADER;
/* Generated by software containing ST-Developer
 * from STEP Tools, Inc. (www.steptools.com) 
 */

FILE_DESCRIPTION(
/* description */ (''),
/* implementation_level */ '2;1');

FILE_NAME(
/* name */ 'DMF 2131 Drum snout ring.stp',
/* time_stamp */ '2026-06-04T11:38:28+03:00',
/* author */ ('admin'),
/* organization */ (''),
/* preprocessor_version */ 'ST-DEVELOPER v20.1',
/* originating_system */ 'Autodesk Inventor 2026',
/* authorisation */ '');

FILE_SCHEMA (('AUTOMOTIVE_DESIGN { 1 0 10303 214 3 1 1 }'));
ENDSEC;

DATA;
#10=MECHANICAL_DESIGN_GEOMETRIC_PRESENTATION_REPRESENTATION('',(#13),#851);
#11=SHAPE_REPRESENTATION_RELATIONSHIP('SRR','None',#858,#12);
#12=ADVANCED_BREP_SHAPE_REPRESENTATION('',(#14),#850);
#13=STYLED_ITEM('',(#867),#14);
#14=MANIFOLD_SOLID_BREP('Solid2',#474);
#15=LINE('',#731,#34);
#16=LINE('',#734,#35);
#17=LINE('',#744,#36);
#18=LINE('',#747,#37);
#19=LINE('',#757,#38);
#20=LINE('',#760,#39);
#21=LINE('',#770,#40);
#22=LINE('',#773,#41);
#23=LINE('',#783,#42);
#24=LINE('',#786,#43);
#25=LINE('',#796,#44);
#26=LINE('',#799,#45);
#27=LINE('',#809,#46);
#28=LINE('',#812,#47);
#29=LINE('',#822,#48);
#30=LINE('',#825,#49);
#31=LINE('',#835,#50);
#32=LINE('',#841,#51);
#33=LINE('',#847,#52);
#34=VECTOR('',#577,10.);
#35=VECTOR('',#580,5.5);
#36=VECTOR('',#593,10.);
#37=VECTOR('',#596,5.5);
#38=VECTOR('',#609,10.);
#39=VECTOR('',#612,5.5);
#40=VECTOR('',#625,10.);
#41=VECTOR('',#628,5.5);
#42=VECTOR('',#641,10.);
#43=VECTOR('',#644,5.5);
#44=VECTOR('',#657,10.);
#45=VECTOR('',#660,5.5);
#46=VECTOR('',#673,10.);
#47=VECTOR('',#676,5.5);
#48=VECTOR('',#689,10.);
#49=VECTOR('',#692,5.5);
#50=VECTOR('',#705,129.);
#51=VECTOR('',#712,90.);
#52=VECTOR('',#721,132.5);
#53=CYLINDRICAL_SURFACE('',#500,10.);
#54=CYLINDRICAL_SURFACE('',#502,5.5);
#55=CYLINDRICAL_SURFACE('',#507,10.);
#56=CYLINDRICAL_SURFACE('',#509,5.5);
#57=CYLINDRICAL_SURFACE('',#514,10.);
#58=CYLINDRICAL_SURFACE('',#516,5.5);
#59=CYLINDRICAL_SURFACE('',#521,10.);
#60=CYLINDRICAL_SURFACE('',#523,5.5);
#61=CYLINDRICAL_SURFACE('',#528,10.);
#62=CYLINDRICAL_SURFACE('',#530,5.5);
#63=CYLINDRICAL_SURFACE('',#535,10.);
#64=CYLINDRICAL_SURFACE('',#537,5.5);
#65=CYLINDRICAL_SURFACE('',#542,10.);
#66=CYLINDRICAL_SURFACE('',#544,5.5);
#67=CYLINDRICAL_SURFACE('',#549,10.);
#68=CYLINDRICAL_SURFACE('',#551,5.5);
#69=CYLINDRICAL_SURFACE('',#556,129.);
#70=CYLINDRICAL_SURFACE('',#560,90.);
#71=CYLINDRICAL_SURFACE('',#564,132.5);
#72=FACE_BOUND('',#130,.T.);
#73=FACE_BOUND('',#134,.T.);
#74=FACE_BOUND('',#138,.T.);
#75=FACE_BOUND('',#142,.T.);
#76=FACE_BOUND('',#146,.T.);
#77=FACE_BOUND('',#150,.T.);
#78=FACE_BOUND('',#154,.T.);
#79=FACE_BOUND('',#158,.T.);
#80=FACE_BOUND('',#162,.T.);
#81=FACE_BOUND('',#165,.T.);
#82=FACE_BOUND('',#166,.T.);
#83=FACE_BOUND('',#167,.T.);
#84=FACE_BOUND('',#168,.T.);
#85=FACE_BOUND('',#169,.T.);
#86=FACE_BOUND('',#170,.T.);
#87=FACE_BOUND('',#171,.T.);
#88=FACE_BOUND('',#172,.T.);
#89=FACE_BOUND('',#173,.T.);
#90=FACE_BOUND('',#176,.T.);
#91=FACE_BOUND('',#177,.T.);
#92=FACE_BOUND('',#178,.T.);
#93=FACE_BOUND('',#179,.T.);
#94=FACE_BOUND('',#180,.T.);
#95=FACE_BOUND('',#181,.T.);
#96=FACE_BOUND('',#182,.T.);
#97=FACE_BOUND('',#183,.T.);
#98=FACE_BOUND('',#184,.T.);
#99=FACE_OUTER_BOUND('',#129,.T.);
#100=FACE_OUTER_BOUND('',#131,.T.);
#101=FACE_OUTER_BOUND('',#132,.T.);
#102=FACE_OUTER_BOUND('',#133,.T.);
#103=FACE_OUTER_BOUND('',#135,.T.);
#104=FACE_OUTER_BOUND('',#136,.T.);
#105=FACE_OUTER_BOUND('',#137,.T.);
#106=FACE_OUTER_BOUND('',#139,.T.);
#107=FACE_OUTER_BOUND('',#140,.T.);
#108=FACE_OUTER_BOUND('',#141,.T.);
#109=FACE_OUTER_BOUND('',#143,.T.);
#110=FACE_OUTER_BOUND('',#144,.T.);
#111=FACE_OUTER_BOUND('',#145,.T.);
#112=FACE_OUTER_BOUND('',#147,.T.);
#113=FACE_OUTER_BOUND('',#148,.T.);
#114=FACE_OUTER_BOUND('',#149,.T.);
#115=FACE_OUTER_BOUND('',#151,.T.);
#116=FACE_OUTER_BOUND('',#152,.T.);
#117=FACE_OUTER_BOUND('',#153,.T.);
#118=FACE_OUTER_BOUND('',#155,.T.);
#119=FACE_OUTER_BOUND('',#156,.T.);
#120=FACE_OUTER_BOUND('',#157,.T.);
#121=FACE_OUTER_BOUND('',#159,.T.);
#122=FACE_OUTER_BOUND('',#160,.T.);
#123=FACE_OUTER_BOUND('',#161,.T.);
#124=FACE_OUTER_BOUND('',#163,.T.);
#125=FACE_OUTER_BOUND('',#164,.T.);
#126=FACE_OUTER_BOUND('',#174,.T.);
#127=FACE_OUTER_BOUND('',#175,.T.);
#128=FACE_OUTER_BOUND('',#185,.T.);
#129=EDGE_LOOP('',(#319));
#130=EDGE_LOOP('',(#320));
#131=EDGE_LOOP('',(#321,#322,#323,#324));
#132=EDGE_LOOP('',(#325,#326,#327,#328));
#133=EDGE_LOOP('',(#329));
#134=EDGE_LOOP('',(#330));
#135=EDGE_LOOP('',(#331,#332,#333,#334));
#136=EDGE_LOOP('',(#335,#336,#337,#338));
#137=EDGE_LOOP('',(#339));
#138=EDGE_LOOP('',(#340));
#139=EDGE_LOOP('',(#341,#342,#343,#344));
#140=EDGE_LOOP('',(#345,#346,#347,#348));
#141=EDGE_LOOP('',(#349));
#142=EDGE_LOOP('',(#350));
#143=EDGE_LOOP('',(#351,#352,#353,#354));
#144=EDGE_LOOP('',(#355,#356,#357,#358));
#145=EDGE_LOOP('',(#359));
#146=EDGE_LOOP('',(#360));
#147=EDGE_LOOP('',(#361,#362,#363,#364));
#148=EDGE_LOOP('',(#365,#366,#367,#368));
#149=EDGE_LOOP('',(#369));
#150=EDGE_LOOP('',(#370));
#151=EDGE_LOOP('',(#371,#372,#373,#374));
#152=EDGE_LOOP('',(#375,#376,#377,#378));
#153=EDGE_LOOP('',(#379));
#154=EDGE_LOOP('',(#380));
#155=EDGE_LOOP('',(#381,#382,#383,#384));
#156=EDGE_LOOP('',(#385,#386,#387,#388));
#157=EDGE_LOOP('',(#389));
#158=EDGE_LOOP('',(#390));
#159=EDGE_LOOP('',(#391,#392,#393,#394));
#160=EDGE_LOOP('',(#395,#396,#397,#398));
#161=EDGE_LOOP('',(#399));
#162=EDGE_LOOP('',(#400));
#163=EDGE_LOOP('',(#401,#402,#403,#404));
#164=EDGE_LOOP('',(#405));
#165=EDGE_LOOP('',(#406));
#166=EDGE_LOOP('',(#407));
#167=EDGE_LOOP('',(#408));
#168=EDGE_LOOP('',(#409));
#169=EDGE_LOOP('',(#410));
#170=EDGE_LOOP('',(#411));
#171=EDGE_LOOP('',(#412));
#172=EDGE_LOOP('',(#413));
#173=EDGE_LOOP('',(#414));
#174=EDGE_LOOP('',(#415,#416,#417,#418));
#175=EDGE_LOOP('',(#419));
#176=EDGE_LOOP('',(#420));
#177=EDGE_LOOP('',(#421));
#178=EDGE_LOOP('',(#422));
#179=EDGE_LOOP('',(#423));
#180=EDGE_LOOP('',(#424));
#181=EDGE_LOOP('',(#425));
#182=EDGE_LOOP('',(#426));
#183=EDGE_LOOP('',(#427));
#184=EDGE_LOOP('',(#428));
#185=EDGE_LOOP('',(#429,#430,#431,#432));
#186=CIRCLE('',#498,10.);
#187=CIRCLE('',#499,5.5);
#188=CIRCLE('',#501,10.);
#189=CIRCLE('',#503,5.5);
#190=CIRCLE('',#505,10.);
#191=CIRCLE('',#506,5.5);
#192=CIRCLE('',#508,10.);
#193=CIRCLE('',#510,5.5);
#194=CIRCLE('',#512,10.);
#195=CIRCLE('',#513,5.5);
#196=CIRCLE('',#515,10.);
#197=CIRCLE('',#517,5.5);
#198=CIRCLE('',#519,10.);
#199=CIRCLE('',#520,5.5);
#200=CIRCLE('',#522,10.);
#201=CIRCLE('',#524,5.5);
#202=CIRCLE('',#526,10.);
#203=CIRCLE('',#527,5.5);
#204=CIRCLE('',#529,10.);
#205=CIRCLE('',#531,5.5);
#206=CIRCLE('',#533,10.);
#207=CIRCLE('',#534,5.5);
#208=CIRCLE('',#536,10.);
#209=CIRCLE('',#538,5.5);
#210=CIRCLE('',#540,10.);
#211=CIRCLE('',#541,5.5);
#212=CIRCLE('',#543,10.);
#213=CIRCLE('',#545,5.5);
#214=CIRCLE('',#547,10.);
#215=CIRCLE('',#548,5.5);
#216=CIRCLE('',#550,10.);
#217=CIRCLE('',#552,5.5);
#218=CIRCLE('',#554,132.5);
#219=CIRCLE('',#555,129.);
#220=CIRCLE('',#557,129.);
#221=CIRCLE('',#559,90.);
#222=CIRCLE('',#561,90.);
#223=CIRCLE('',#563,132.5);
#224=VERTEX_POINT('',#724);
#225=VERTEX_POINT('',#726);
#226=VERTEX_POINT('',#729);
#227=VERTEX_POINT('',#733);
#228=VERTEX_POINT('',#737);
#229=VERTEX_POINT('',#739);
#230=VERTEX_POINT('',#742);
#231=VERTEX_POINT('',#746);
#232=VERTEX_POINT('',#750);
#233=VERTEX_POINT('',#752);
#234=VERTEX_POINT('',#755);
#235=VERTEX_POINT('',#759);
#236=VERTEX_POINT('',#763);
#237=VERTEX_POINT('',#765);
#238=VERTEX_POINT('',#768);
#239=VERTEX_POINT('',#772);
#240=VERTEX_POINT('',#776);
#241=VERTEX_POINT('',#778);
#242=VERTEX_POINT('',#781);
#243=VERTEX_POINT('',#785);
#244=VERTEX_POINT('',#789);
#245=VERTEX_POINT('',#791);
#246=VERTEX_POINT('',#794);
#247=VERTEX_POINT('',#798);
#248=VERTEX_POINT('',#802);
#249=VERTEX_POINT('',#804);
#250=VERTEX_POINT('',#807);
#251=VERTEX_POINT('',#811);
#252=VERTEX_POINT('',#815);
#253=VERTEX_POINT('',#817);
#254=VERTEX_POINT('',#820);
#255=VERTEX_POINT('',#824);
#256=VERTEX_POINT('',#828);
#257=VERTEX_POINT('',#830);
#258=VERTEX_POINT('',#833);
#259=VERTEX_POINT('',#837);
#260=VERTEX_POINT('',#840);
#261=VERTEX_POINT('',#844);
#262=EDGE_CURVE('',#224,#224,#186,.T.);
#263=EDGE_CURVE('',#225,#225,#187,.T.);
#264=EDGE_CURVE('',#226,#226,#188,.T.);
#265=EDGE_CURVE('',#226,#224,#15,.T.);
#266=EDGE_CURVE('',#225,#227,#16,.T.);
#267=EDGE_CURVE('',#227,#227,#189,.T.);
#268=EDGE_CURVE('',#228,#228,#190,.T.);
#269=EDGE_CURVE('',#229,#229,#191,.T.);
#270=EDGE_CURVE('',#230,#230,#192,.T.);
#271=EDGE_CURVE('',#230,#228,#17,.T.);
#272=EDGE_CURVE('',#229,#231,#18,.T.);
#273=EDGE_CURVE('',#231,#231,#193,.T.);
#274=EDGE_CURVE('',#232,#232,#194,.T.);
#275=EDGE_CURVE('',#233,#233,#195,.T.);
#276=EDGE_CURVE('',#234,#234,#196,.T.);
#277=EDGE_CURVE('',#234,#232,#19,.T.);
#278=EDGE_CURVE('',#233,#235,#20,.T.);
#279=EDGE_CURVE('',#235,#235,#197,.T.);
#280=EDGE_CURVE('',#236,#236,#198,.T.);
#281=EDGE_CURVE('',#237,#237,#199,.T.);
#282=EDGE_CURVE('',#238,#238,#200,.T.);
#283=EDGE_CURVE('',#238,#236,#21,.T.);
#284=EDGE_CURVE('',#237,#239,#22,.T.);
#285=EDGE_CURVE('',#239,#239,#201,.T.);
#286=EDGE_CURVE('',#240,#240,#202,.T.);
#287=EDGE_CURVE('',#241,#241,#203,.T.);
#288=EDGE_CURVE('',#242,#242,#204,.T.);
#289=EDGE_CURVE('',#242,#240,#23,.T.);
#290=EDGE_CURVE('',#241,#243,#24,.T.);
#291=EDGE_CURVE('',#243,#243,#205,.T.);
#292=EDGE_CURVE('',#244,#244,#206,.T.);
#293=EDGE_CURVE('',#245,#245,#207,.T.);
#294=EDGE_CURVE('',#246,#246,#208,.T.);
#295=EDGE_CURVE('',#246,#244,#25,.T.);
#296=EDGE_CURVE('',#245,#247,#26,.T.);
#297=EDGE_CURVE('',#247,#247,#209,.T.);
#298=EDGE_CURVE('',#248,#248,#210,.T.);
#299=EDGE_CURVE('',#249,#249,#211,.T.);
#300=EDGE_CURVE('',#250,#250,#212,.T.);
#301=EDGE_CURVE('',#250,#248,#27,.T.);
#302=EDGE_CURVE('',#249,#251,#28,.T.);
#303=EDGE_CURVE('',#251,#251,#213,.T.);
#304=EDGE_CURVE('',#252,#252,#214,.T.);
#305=EDGE_CURVE('',#253,#253,#215,.T.);
#306=EDGE_CURVE('',#254,#254,#216,.T.);
#307=EDGE_CURVE('',#254,#252,#29,.T.);
#308=EDGE_CURVE('',#253,#255,#30,.T.);
#309=EDGE_CURVE('',#255,#255,#217,.T.);
#310=EDGE_CURVE('',#256,#256,#218,.T.);
#311=EDGE_CURVE('',#257,#257,#219,.T.);
#312=EDGE_CURVE('',#258,#258,#220,.T.);
#313=EDGE_CURVE('',#258,#257,#31,.T.);
#314=EDGE_CURVE('',#259,#259,#221,.T.);
#315=EDGE_CURVE('',#259,#260,#32,.T.);
#316=EDGE_CURVE('',#260,#260,#222,.T.);
#317=EDGE_CURVE('',#261,#261,#223,.T.);
#318=EDGE_CURVE('',#256,#261,#33,.T.);
#319=ORIENTED_EDGE('',*,*,#262,.T.);
#320=ORIENTED_EDGE('',*,*,#263,.F.);
#321=ORIENTED_EDGE('',*,*,#264,.F.);
#322=ORIENTED_EDGE('',*,*,#265,.T.);
#323=ORIENTED_EDGE('',*,*,#262,.F.);
#324=ORIENTED_EDGE('',*,*,#265,.F.);
#325=ORIENTED_EDGE('',*,*,#263,.T.);
#326=ORIENTED_EDGE('',*,*,#266,.T.);
#327=ORIENTED_EDGE('',*,*,#267,.F.);
#328=ORIENTED_EDGE('',*,*,#266,.F.);
#329=ORIENTED_EDGE('',*,*,#268,.T.);
#330=ORIENTED_EDGE('',*,*,#269,.F.);
#331=ORIENTED_EDGE('',*,*,#270,.F.);
#332=ORIENTED_EDGE('',*,*,#271,.T.);
#333=ORIENTED_EDGE('',*,*,#268,.F.);
#334=ORIENTED_EDGE('',*,*,#271,.F.);
#335=ORIENTED_EDGE('',*,*,#269,.T.);
#336=ORIENTED_EDGE('',*,*,#272,.T.);
#337=ORIENTED_EDGE('',*,*,#273,.F.);
#338=ORIENTED_EDGE('',*,*,#272,.F.);
#339=ORIENTED_EDGE('',*,*,#274,.T.);
#340=ORIENTED_EDGE('',*,*,#275,.F.);
#341=ORIENTED_EDGE('',*,*,#276,.F.);
#342=ORIENTED_EDGE('',*,*,#277,.T.);
#343=ORIENTED_EDGE('',*,*,#274,.F.);
#344=ORIENTED_EDGE('',*,*,#277,.F.);
#345=ORIENTED_EDGE('',*,*,#275,.T.);
#346=ORIENTED_EDGE('',*,*,#278,.T.);
#347=ORIENTED_EDGE('',*,*,#279,.F.);
#348=ORIENTED_EDGE('',*,*,#278,.F.);
#349=ORIENTED_EDGE('',*,*,#280,.T.);
#350=ORIENTED_EDGE('',*,*,#281,.F.);
#351=ORIENTED_EDGE('',*,*,#282,.F.);
#352=ORIENTED_EDGE('',*,*,#283,.T.);
#353=ORIENTED_EDGE('',*,*,#280,.F.);
#354=ORIENTED_EDGE('',*,*,#283,.F.);
#355=ORIENTED_EDGE('',*,*,#281,.T.);
#356=ORIENTED_EDGE('',*,*,#284,.T.);
#357=ORIENTED_EDGE('',*,*,#285,.F.);
#358=ORIENTED_EDGE('',*,*,#284,.F.);
#359=ORIENTED_EDGE('',*,*,#286,.T.);
#360=ORIENTED_EDGE('',*,*,#287,.F.);
#361=ORIENTED_EDGE('',*,*,#288,.F.);
#362=ORIENTED_EDGE('',*,*,#289,.T.);
#363=ORIENTED_EDGE('',*,*,#286,.F.);
#364=ORIENTED_EDGE('',*,*,#289,.F.);
#365=ORIENTED_EDGE('',*,*,#287,.T.);
#366=ORIENTED_EDGE('',*,*,#290,.T.);
#367=ORIENTED_EDGE('',*,*,#291,.F.);
#368=ORIENTED_EDGE('',*,*,#290,.F.);
#369=ORIENTED_EDGE('',*,*,#292,.T.);
#370=ORIENTED_EDGE('',*,*,#293,.F.);
#371=ORIENTED_EDGE('',*,*,#294,.F.);
#372=ORIENTED_EDGE('',*,*,#295,.T.);
#373=ORIENTED_EDGE('',*,*,#292,.F.);
#374=ORIENTED_EDGE('',*,*,#295,.F.);
#375=ORIENTED_EDGE('',*,*,#293,.T.);
#376=ORIENTED_EDGE('',*,*,#296,.T.);
#377=ORIENTED_EDGE('',*,*,#297,.F.);
#378=ORIENTED_EDGE('',*,*,#296,.F.);
#379=ORIENTED_EDGE('',*,*,#298,.T.);
#380=ORIENTED_EDGE('',*,*,#299,.F.);
#381=ORIENTED_EDGE('',*,*,#300,.F.);
#382=ORIENTED_EDGE('',*,*,#301,.T.);
#383=ORIENTED_EDGE('',*,*,#298,.F.);
#384=ORIENTED_EDGE('',*,*,#301,.F.);
#385=ORIENTED_EDGE('',*,*,#299,.T.);
#386=ORIENTED_EDGE('',*,*,#302,.T.);
#387=ORIENTED_EDGE('',*,*,#303,.F.);
#388=ORIENTED_EDGE('',*,*,#302,.F.);
#389=ORIENTED_EDGE('',*,*,#304,.T.);
#390=ORIENTED_EDGE('',*,*,#305,.F.);
#391=ORIENTED_EDGE('',*,*,#306,.F.);
#392=ORIENTED_EDGE('',*,*,#307,.T.);
#393=ORIENTED_EDGE('',*,*,#304,.F.);
#394=ORIENTED_EDGE('',*,*,#307,.F.);
#395=ORIENTED_EDGE('',*,*,#305,.T.);
#396=ORIENTED_EDGE('',*,*,#308,.T.);
#397=ORIENTED_EDGE('',*,*,#309,.F.);
#398=ORIENTED_EDGE('',*,*,#308,.F.);
#399=ORIENTED_EDGE('',*,*,#310,.T.);
#400=ORIENTED_EDGE('',*,*,#311,.F.);
#401=ORIENTED_EDGE('',*,*,#312,.F.);
#402=ORIENTED_EDGE('',*,*,#313,.T.);
#403=ORIENTED_EDGE('',*,*,#311,.T.);
#404=ORIENTED_EDGE('',*,*,#313,.F.);
#405=ORIENTED_EDGE('',*,*,#312,.T.);
#406=ORIENTED_EDGE('',*,*,#264,.T.);
#407=ORIENTED_EDGE('',*,*,#270,.T.);
#408=ORIENTED_EDGE('',*,*,#276,.T.);
#409=ORIENTED_EDGE('',*,*,#282,.T.);
#410=ORIENTED_EDGE('',*,*,#288,.T.);
#411=ORIENTED_EDGE('',*,*,#294,.T.);
#412=ORIENTED_EDGE('',*,*,#300,.T.);
#413=ORIENTED_EDGE('',*,*,#306,.T.);
#414=ORIENTED_EDGE('',*,*,#314,.F.);
#415=ORIENTED_EDGE('',*,*,#314,.T.);
#416=ORIENTED_EDGE('',*,*,#315,.T.);
#417=ORIENTED_EDGE('',*,*,#316,.F.);
#418=ORIENTED_EDGE('',*,*,#315,.F.);
#419=ORIENTED_EDGE('',*,*,#317,.F.);
#420=ORIENTED_EDGE('',*,*,#267,.T.);
#421=ORIENTED_EDGE('',*,*,#273,.T.);
#422=ORIENTED_EDGE('',*,*,#279,.T.);
#423=ORIENTED_EDGE('',*,*,#285,.T.);
#424=ORIENTED_EDGE('',*,*,#291,.T.);
#425=ORIENTED_EDGE('',*,*,#297,.T.);
#426=ORIENTED_EDGE('',*,*,#303,.T.);
#427=ORIENTED_EDGE('',*,*,#309,.T.);
#428=ORIENTED_EDGE('',*,*,#316,.T.);
#429=ORIENTED_EDGE('',*,*,#310,.F.);
#430=ORIENTED_EDGE('',*,*,#318,.T.);
#431=ORIENTED_EDGE('',*,*,#317,.T.);
#432=ORIENTED_EDGE('',*,*,#318,.F.);
#433=PLANE('',#497);
#434=PLANE('',#504);
#435=PLANE('',#511);
#436=PLANE('',#518);
#437=PLANE('',#525);
#438=PLANE('',#532);
#439=PLANE('',#539);
#440=PLANE('',#546);
#441=PLANE('',#553);
#442=PLANE('',#558);
#443=PLANE('',#562);
#444=ADVANCED_FACE('',(#99,#72),#433,.T.);
#445=ADVANCED_FACE('',(#100),#53,.F.);
#446=ADVANCED_FACE('',(#101),#54,.F.);
#447=ADVANCED_FACE('',(#102,#73),#434,.T.);
#448=ADVANCED_FACE('',(#103),#55,.F.);
#449=ADVANCED_FACE('',(#104),#56,.F.);
#450=ADVANCED_FACE('',(#105,#74),#435,.T.);
#451=ADVANCED_FACE('',(#106),#57,.F.);
#452=ADVANCED_FACE('',(#107),#58,.F.);
#453=ADVANCED_FACE('',(#108,#75),#436,.T.);
#454=ADVANCED_FACE('',(#109),#59,.F.);
#455=ADVANCED_FACE('',(#110),#60,.F.);
#456=ADVANCED_FACE('',(#111,#76),#437,.T.);
#457=ADVANCED_FACE('',(#112),#61,.F.);
#458=ADVANCED_FACE('',(#113),#62,.F.);
#459=ADVANCED_FACE('',(#114,#77),#438,.T.);
#460=ADVANCED_FACE('',(#115),#63,.F.);
#461=ADVANCED_FACE('',(#116),#64,.F.);
#462=ADVANCED_FACE('',(#117,#78),#439,.T.);
#463=ADVANCED_FACE('',(#118),#65,.F.);
#464=ADVANCED_FACE('',(#119),#66,.F.);
#465=ADVANCED_FACE('',(#120,#79),#440,.T.);
#466=ADVANCED_FACE('',(#121),#67,.F.);
#467=ADVANCED_FACE('',(#122),#68,.F.);
#468=ADVANCED_FACE('',(#123,#80),#441,.T.);
#469=ADVANCED_FACE('',(#124),#69,.T.);
#470=ADVANCED_FACE('',(#125,#81,#82,#83,#84,#85,#86,#87,#88,#89),#442,.T.);
#471=ADVANCED_FACE('',(#126),#70,.F.);
#472=ADVANCED_FACE('',(#127,#90,#91,#92,#93,#94,#95,#96,#97,#98),#443,.T.);
#473=ADVANCED_FACE('',(#128),#71,.T.);
#474=CLOSED_SHELL('',(#444,#445,#446,#447,#448,#449,#450,#451,#452,#453,
#454,#455,#456,#457,#458,#459,#460,#461,#462,#463,#464,#465,#466,#467,#468,
#469,#470,#471,#472,#473));
#475=DERIVED_UNIT_ELEMENT(#478,1.);
#476=DERIVED_UNIT_ELEMENT(#853,-3.);
#477=DIMENSIONAL_EXPONENTS(0.,1.,0.,0.,0.,0.,0.);
#478=(
CONVERSION_BASED_UNIT('gram',#480)
MASS_UNIT()
NAMED_UNIT(#477)
);
#479=(
MASS_UNIT()
NAMED_UNIT(*)
SI_UNIT(.KILO.,.GRAM.)
);
#480=MASS_MEASURE_WITH_UNIT(MASS_MEASURE(0.001),#479);
#481=DERIVED_UNIT((#475,#476));
#482=MEASURE_REPRESENTATION_ITEM('density measure',
POSITIVE_RATIO_MEASURE(1.),#481);
#483=PROPERTY_DEFINITION_REPRESENTATION(#488,#485);
#484=PROPERTY_DEFINITION_REPRESENTATION(#489,#486);
#485=REPRESENTATION('material name',(#487),#850);
#486=REPRESENTATION('density',(#482),#850);
#487=DESCRIPTIVE_REPRESENTATION_ITEM('Generic','Generic');
#488=PROPERTY_DEFINITION('material property','material name',#860);
#489=PROPERTY_DEFINITION('material property','density of part',#860);
#490=DATE_TIME_ROLE('creation_date');
#491=APPLIED_DATE_AND_TIME_ASSIGNMENT(#492,#490,(#860));
#492=DATE_AND_TIME(#493,#494);
#493=CALENDAR_DATE(2024,28,4);
#494=LOCAL_TIME(0,0,0.,#495);
#495=COORDINATED_UNIVERSAL_TIME_OFFSET(0,0,.BEHIND.);
#496=AXIS2_PLACEMENT_3D('',#722,#565,#566);
#497=AXIS2_PLACEMENT_3D('',#723,#567,#568);
#498=AXIS2_PLACEMENT_3D('',#725,#569,#570);
#499=AXIS2_PLACEMENT_3D('',#727,#571,#572);
#500=AXIS2_PLACEMENT_3D('',#728,#573,#574);
#501=AXIS2_PLACEMENT_3D('',#730,#575,#576);
#502=AXIS2_PLACEMENT_3D('',#732,#578,#579);
#503=AXIS2_PLACEMENT_3D('',#735,#581,#582);
#504=AXIS2_PLACEMENT_3D('',#736,#583,#584);
#505=AXIS2_PLACEMENT_3D('',#738,#585,#586);
#506=AXIS2_PLACEMENT_3D('',#740,#587,#588);
#507=AXIS2_PLACEMENT_3D('',#741,#589,#590);
#508=AXIS2_PLACEMENT_3D('',#743,#591,#592);
#509=AXIS2_PLACEMENT_3D('',#745,#594,#595);
#510=AXIS2_PLACEMENT_3D('',#748,#597,#598);
#511=AXIS2_PLACEMENT_3D('',#749,#599,#600);
#512=AXIS2_PLACEMENT_3D('',#751,#601,#602);
#513=AXIS2_PLACEMENT_3D('',#753,#603,#604);
#514=AXIS2_PLACEMENT_3D('',#754,#605,#606);
#515=AXIS2_PLACEMENT_3D('',#756,#607,#608);
#516=AXIS2_PLACEMENT_3D('',#758,#610,#611);
#517=AXIS2_PLACEMENT_3D('',#761,#613,#614);
#518=AXIS2_PLACEMENT_3D('',#762,#615,#616);
#519=AXIS2_PLACEMENT_3D('',#764,#617,#618);
#520=AXIS2_PLACEMENT_3D('',#766,#619,#620);
#521=AXIS2_PLACEMENT_3D('',#767,#621,#622);
#522=AXIS2_PLACEMENT_3D('',#769,#623,#624);
#523=AXIS2_PLACEMENT_3D('',#771,#626,#627);
#524=AXIS2_PLACEMENT_3D('',#774,#629,#630);
#525=AXIS2_PLACEMENT_3D('',#775,#631,#632);
#526=AXIS2_PLACEMENT_3D('',#777,#633,#634);
#527=AXIS2_PLACEMENT_3D('',#779,#635,#636);
#528=AXIS2_PLACEMENT_3D('',#780,#637,#638);
#529=AXIS2_PLACEMENT_3D('',#782,#639,#640);
#530=AXIS2_PLACEMENT_3D('',#784,#642,#643);
#531=AXIS2_PLACEMENT_3D('',#787,#645,#646);
#532=AXIS2_PLACEMENT_3D('',#788,#647,#648);
#533=AXIS2_PLACEMENT_3D('',#790,#649,#650);
#534=AXIS2_PLACEMENT_3D('',#792,#651,#652);
#535=AXIS2_PLACEMENT_3D('',#793,#653,#654);
#536=AXIS2_PLACEMENT_3D('',#795,#655,#656);
#537=AXIS2_PLACEMENT_3D('',#797,#658,#659);
#538=AXIS2_PLACEMENT_3D('',#800,#661,#662);
#539=AXIS2_PLACEMENT_3D('',#801,#663,#664);
#540=AXIS2_PLACEMENT_3D('',#803,#665,#666);
#541=AXIS2_PLACEMENT_3D('',#805,#667,#668);
#542=AXIS2_PLACEMENT_3D('',#806,#669,#670);
#543=AXIS2_PLACEMENT_3D('',#808,#671,#672);
#544=AXIS2_PLACEMENT_3D('',#810,#674,#675);
#545=AXIS2_PLACEMENT_3D('',#813,#677,#678);
#546=AXIS2_PLACEMENT_3D('',#814,#679,#680);
#547=AXIS2_PLACEMENT_3D('',#816,#681,#682);
#548=AXIS2_PLACEMENT_3D('',#818,#683,#684);
#549=AXIS2_PLACEMENT_3D('',#819,#685,#686);
#550=AXIS2_PLACEMENT_3D('',#821,#687,#688);
#551=AXIS2_PLACEMENT_3D('',#823,#690,#691);
#552=AXIS2_PLACEMENT_3D('',#826,#693,#694);
#553=AXIS2_PLACEMENT_3D('',#827,#695,#696);
#554=AXIS2_PLACEMENT_3D('',#829,#697,#698);
#555=AXIS2_PLACEMENT_3D('',#831,#699,#700);
#556=AXIS2_PLACEMENT_3D('',#832,#701,#702);
#557=AXIS2_PLACEMENT_3D('',#834,#703,#704);
#558=AXIS2_PLACEMENT_3D('',#836,#706,#707);
#559=AXIS2_PLACEMENT_3D('',#838,#708,#709);
#560=AXIS2_PLACEMENT_3D('',#839,#710,#711);
#561=AXIS2_PLACEMENT_3D('',#842,#713,#714);
#562=AXIS2_PLACEMENT_3D('',#843,#715,#716);
#563=AXIS2_PLACEMENT_3D('',#845,#717,#718);
#564=AXIS2_PLACEMENT_3D('',#846,#719,#720);
#565=DIRECTION('axis',(0.,0.,1.));
#566=DIRECTION('refdir',(1.,0.,0.));
#567=DIRECTION('center_axis',(2.76336272728344E-15,1.,2.76336272728344E-15));
#568=DIRECTION('ref_axis',(0.707106781186547,-3.90798504668054E-15,0.707106781186548));
#569=DIRECTION('center_axis',(2.76336272728344E-15,1.,2.76336272728344E-15));
#570=DIRECTION('ref_axis',(0.707106781186547,-3.90798504668054E-15,0.707106781186548));
#571=DIRECTION('center_axis',(2.76336272728344E-15,1.,2.76336272728344E-15));
#572=DIRECTION('ref_axis',(0.707106781186547,-3.90798504668054E-15,0.707106781186548));
#573=DIRECTION('center_axis',(2.76336272728344E-15,1.,2.76336272728344E-15));
#574=DIRECTION('ref_axis',(0.707106781186547,-3.90798504668054E-15,0.707106781186548));
#575=DIRECTION('center_axis',(-3.90798504668054E-15,-1.,0.));
#576=DIRECTION('ref_axis',(0.707106781186547,-3.90798504668054E-15,0.707106781186548));
#577=DIRECTION('',(-2.76336272728344E-15,-1.,-2.76336272728344E-15));
#578=DIRECTION('center_axis',(2.76336272728344E-15,1.,2.76336272728344E-15));
#579=DIRECTION('ref_axis',(0.707106781186547,-3.90798504668054E-15,0.707106781186548));
#580=DIRECTION('',(-2.76336272728344E-15,-1.,-2.76336272728344E-15));
#581=DIRECTION('center_axis',(3.90798504668054E-15,1.,0.));
#582=DIRECTION('ref_axis',(0.707106781186547,-3.90798504668054E-15,0.707106781186548));
#583=DIRECTION('center_axis',(-3.94430452610506E-31,1.,3.90798504668055E-15));
#584=DIRECTION('ref_axis',(-1.11022302462516E-16,-3.90798504668054E-15,
1.));
#585=DIRECTION('center_axis',(-3.94430452610506E-31,1.,3.90798504668055E-15));
#586=DIRECTION('ref_axis',(-1.11022302462516E-16,-3.90798504668054E-15,
1.));
#587=DIRECTION('center_axis',(-3.94430452610506E-31,1.,3.90798504668055E-15));
#588=DIRECTION('ref_axis',(-1.00929365875014E-16,-3.90798504668054E-15,
1.));
#589=DIRECTION('center_axis',(-3.94430452610506E-31,1.,3.90798504668055E-15));
#590=DIRECTION('ref_axis',(-1.11022302462516E-16,-3.90798504668054E-15,
1.));
#591=DIRECTION('center_axis',(-3.90798504668054E-15,-1.,0.));
#592=DIRECTION('ref_axis',(-1.11022302462516E-16,-3.90798504668054E-15,
1.));
#593=DIRECTION('',(3.94430452610506E-31,-1.,-3.90798504668055E-15));
#594=DIRECTION('center_axis',(-3.94430452610506E-31,1.,3.90798504668055E-15));
#595=DIRECTION('ref_axis',(-1.00929365875014E-16,-3.90798504668054E-15,
1.));
#596=DIRECTION('',(3.94430452610506E-31,-1.,-3.90798504668055E-15));
#597=DIRECTION('center_axis',(3.90798504668054E-15,1.,0.));
#598=DIRECTION('ref_axis',(-1.00929365875014E-16,-3.90798504668054E-15,
1.));
#599=DIRECTION('center_axis',(-2.76336272728344E-15,1.,2.76336272728344E-15));
#600=DIRECTION('ref_axis',(-0.707106781186548,-3.90798504668054E-15,0.707106781186547));
#601=DIRECTION('center_axis',(-2.76336272728344E-15,1.,2.76336272728344E-15));
#602=DIRECTION('ref_axis',(-0.707106781186548,-3.90798504668054E-15,0.707106781186547));
#603=DIRECTION('center_axis',(-2.76336272728344E-15,1.,2.76336272728344E-15));
#604=DIRECTION('ref_axis',(-0.707106781186548,-3.90798504668054E-15,0.707106781186547));
#605=DIRECTION('center_axis',(-2.76336272728344E-15,1.,2.76336272728344E-15));
#606=DIRECTION('ref_axis',(-0.707106781186548,-3.90798504668054E-15,0.707106781186547));
#607=DIRECTION('center_axis',(-3.90798504668054E-15,-1.,0.));
#608=DIRECTION('ref_axis',(-0.707106781186548,-3.90798504668054E-15,0.707106781186547));
#609=DIRECTION('',(2.76336272728344E-15,-1.,-2.76336272728344E-15));
#610=DIRECTION('center_axis',(-2.76336272728344E-15,1.,2.76336272728344E-15));
#611=DIRECTION('ref_axis',(-0.707106781186548,-3.90798504668054E-15,0.707106781186547));
#612=DIRECTION('',(2.76336272728344E-15,-1.,-2.76336272728344E-15));
#613=DIRECTION('center_axis',(3.90798504668054E-15,1.,0.));
#614=DIRECTION('ref_axis',(-0.707106781186548,-3.90798504668054E-15,0.707106781186547));
#615=DIRECTION('center_axis',(-3.90798504668055E-15,1.,-3.94430452610506E-31));
#616=DIRECTION('ref_axis',(-1.,-3.90798504668054E-15,-1.11022302462516E-16));
#617=DIRECTION('center_axis',(-3.90798504668055E-15,1.,-3.94430452610506E-31));
#618=DIRECTION('ref_axis',(-1.,-3.90798504668054E-15,-1.11022302462516E-16));
#619=DIRECTION('center_axis',(-3.90798504668055E-15,1.,-3.94430452610506E-31));
#620=DIRECTION('ref_axis',(-1.,-3.90798504668054E-15,-1.00929365875014E-16));
#621=DIRECTION('center_axis',(-3.90798504668055E-15,1.,-3.94430452610506E-31));
#622=DIRECTION('ref_axis',(-1.,-3.90798504668054E-15,-1.11022302462516E-16));
#623=DIRECTION('center_axis',(-3.90798504668054E-15,-1.,0.));
#624=DIRECTION('ref_axis',(-1.,-3.90798504668054E-15,-1.11022302462516E-16));
#625=DIRECTION('',(3.90798504668055E-15,-1.,3.94430452610506E-31));
#626=DIRECTION('center_axis',(-3.90798504668055E-15,1.,-3.94430452610506E-31));
#627=DIRECTION('ref_axis',(-1.,-3.90798504668054E-15,-1.00929365875014E-16));
#628=DIRECTION('',(3.90798504668055E-15,-1.,3.94430452610506E-31));
#629=DIRECTION('center_axis',(3.90798504668054E-15,1.,0.));
#630=DIRECTION('ref_axis',(-1.,-3.90798504668054E-15,-1.00929365875014E-16));
#631=DIRECTION('center_axis',(-2.76336272728344E-15,1.,-2.76336272728344E-15));
#632=DIRECTION('ref_axis',(-0.707106781186547,-3.90798504668054E-15,-0.707106781186548));
#633=DIRECTION('center_axis',(-2.76336272728344E-15,1.,-2.76336272728344E-15));
#634=DIRECTION('ref_axis',(-0.707106781186547,-3.90798504668054E-15,-0.707106781186548));
#635=DIRECTION('center_axis',(-2.76336272728344E-15,1.,-2.76336272728344E-15));
#636=DIRECTION('ref_axis',(-0.707106781186547,-3.90798504668054E-15,-0.707106781186548));
#637=DIRECTION('center_axis',(-2.76336272728344E-15,1.,-2.76336272728344E-15));
#638=DIRECTION('ref_axis',(-0.707106781186547,-3.90798504668054E-15,-0.707106781186548));
#639=DIRECTION('center_axis',(-3.90798504668054E-15,-1.,0.));
#640=DIRECTION('ref_axis',(-0.707106781186547,-3.90798504668054E-15,-0.707106781186548));
#641=DIRECTION('',(2.76336272728344E-15,-1.,2.76336272728344E-15));
#642=DIRECTION('center_axis',(-2.76336272728344E-15,1.,-2.76336272728344E-15));
#643=DIRECTION('ref_axis',(-0.707106781186547,-3.90798504668054E-15,-0.707106781186548));
#644=DIRECTION('',(2.76336272728344E-15,-1.,2.76336272728344E-15));
#645=DIRECTION('center_axis',(3.90798504668054E-15,1.,0.));
#646=DIRECTION('ref_axis',(-0.707106781186547,-3.90798504668054E-15,-0.707106781186548));
#647=DIRECTION('center_axis',(0.,1.,-3.90798504668055E-15));
#648=DIRECTION('ref_axis',(0.,-3.90798504668054E-15,-1.));
#649=DIRECTION('center_axis',(0.,1.,-3.90798504668055E-15));
#650=DIRECTION('ref_axis',(0.,-3.90798504668054E-15,-1.));
#651=DIRECTION('center_axis',(0.,1.,-3.90798504668055E-15));
#652=DIRECTION('ref_axis',(0.,-3.90798504668054E-15,-1.));
#653=DIRECTION('center_axis',(0.,1.,-3.90798504668055E-15));
#654=DIRECTION('ref_axis',(0.,-3.90798504668054E-15,-1.));
#655=DIRECTION('center_axis',(-3.90798504668054E-15,-1.,0.));
#656=DIRECTION('ref_axis',(0.,-3.90798504668054E-15,-1.));
#657=DIRECTION('',(0.,-1.,3.90798504668055E-15));
#658=DIRECTION('center_axis',(0.,1.,-3.90798504668055E-15));
#659=DIRECTION('ref_axis',(0.,-3.90798504668054E-15,-1.));
#660=DIRECTION('',(0.,-1.,3.90798504668055E-15));
#661=DIRECTION('center_axis',(3.90798504668054E-15,1.,0.));
#662=DIRECTION('ref_axis',(0.,-3.90798504668054E-15,-1.));
#663=DIRECTION('center_axis',(2.76336272728344E-15,1.,-2.76336272728344E-15));
#664=DIRECTION('ref_axis',(0.707106781186548,-3.90798504668054E-15,-0.707106781186548));
#665=DIRECTION('center_axis',(2.76336272728344E-15,1.,-2.76336272728344E-15));
#666=DIRECTION('ref_axis',(0.707106781186548,-3.90798504668054E-15,-0.707106781186548));
#667=DIRECTION('center_axis',(2.76336272728344E-15,1.,-2.76336272728344E-15));
#668=DIRECTION('ref_axis',(0.707106781186548,-3.90798504668054E-15,-0.707106781186548));
#669=DIRECTION('center_axis',(2.76336272728344E-15,1.,-2.76336272728344E-15));
#670=DIRECTION('ref_axis',(0.707106781186548,-3.90798504668054E-15,-0.707106781186548));
#671=DIRECTION('center_axis',(-3.90798504668054E-15,-1.,0.));
#672=DIRECTION('ref_axis',(0.707106781186548,-3.90798504668054E-15,-0.707106781186548));
#673=DIRECTION('',(-2.76336272728344E-15,-1.,2.76336272728344E-15));
#674=DIRECTION('center_axis',(2.76336272728344E-15,1.,-2.76336272728344E-15));
#675=DIRECTION('ref_axis',(0.707106781186548,-3.90798504668054E-15,-0.707106781186548));
#676=DIRECTION('',(-2.76336272728344E-15,-1.,2.76336272728344E-15));
#677=DIRECTION('center_axis',(3.90798504668054E-15,1.,0.));
#678=DIRECTION('ref_axis',(0.707106781186548,-3.90798504668054E-15,-0.707106781186548));
#679=DIRECTION('center_axis',(3.90798504668054E-15,1.,0.));
#680=DIRECTION('ref_axis',(1.,-3.90798504668054E-15,0.));
#681=DIRECTION('center_axis',(3.90798504668054E-15,1.,0.));
#682=DIRECTION('ref_axis',(1.,-3.90798504668054E-15,0.));
#683=DIRECTION('center_axis',(3.90798504668054E-15,1.,0.));
#684=DIRECTION('ref_axis',(1.,-3.90798504668054E-15,0.));
#685=DIRECTION('center_axis',(3.90798504668054E-15,1.,0.));
#686=DIRECTION('ref_axis',(1.,-3.90798504668054E-15,0.));
#687=DIRECTION('center_axis',(-3.90798504668054E-15,-1.,0.));
#688=DIRECTION('ref_axis',(1.,-3.90798504668054E-15,0.));
#689=DIRECTION('',(-3.90798504668054E-15,-1.,0.));
#690=DIRECTION('center_axis',(3.90798504668054E-15,1.,0.));
#691=DIRECTION('ref_axis',(1.,-3.90798504668054E-15,0.));
#692=DIRECTION('',(-3.90798504668054E-15,-1.,0.));
#693=DIRECTION('center_axis',(3.90798504668054E-15,1.,0.));
#694=DIRECTION('ref_axis',(1.,-3.90798504668054E-15,0.));
#695=DIRECTION('center_axis',(3.90798504668054E-15,1.,0.));
#696=DIRECTION('ref_axis',(0.,0.,1.));
#697=DIRECTION('center_axis',(3.90798504668054E-15,1.,0.));
#698=DIRECTION('ref_axis',(1.,-3.90798504668054E-15,0.));
#699=DIRECTION('center_axis',(3.90798504668054E-15,1.,0.));
#700=DIRECTION('ref_axis',(1.,-3.90798504668054E-15,0.));
#701=DIRECTION('center_axis',(3.90798504668054E-15,1.,0.));
#702=DIRECTION('ref_axis',(1.,-3.90882295085008E-15,0.));
#703=DIRECTION('center_axis',(3.90798504668054E-15,1.,0.));
#704=DIRECTION('ref_axis',(1.,-3.90798504668054E-15,0.));
#705=DIRECTION('',(-3.90798504668054E-15,-1.,0.));
#706=DIRECTION('center_axis',(3.90798504668054E-15,1.,0.));
#707=DIRECTION('ref_axis',(0.,0.,1.));
#708=DIRECTION('center_axis',(3.90798504668054E-15,1.,0.));
#709=DIRECTION('ref_axis',(1.,-3.90798504668054E-15,0.));
#710=DIRECTION('center_axis',(3.90798504668054E-15,1.,0.));
#711=DIRECTION('ref_axis',(1.,-3.90882295085008E-15,0.));
#712=DIRECTION('',(-3.90798504668054E-15,-1.,0.));
#713=DIRECTION('center_axis',(3.90798504668054E-15,1.,0.));
#714=DIRECTION('ref_axis',(1.,-3.90798504668054E-15,0.));
#715=DIRECTION('center_axis',(-3.90798504668054E-15,-1.,0.));
#716=DIRECTION('ref_axis',(0.,0.,-1.));
#717=DIRECTION('center_axis',(3.90798504668054E-15,1.,0.));
#718=DIRECTION('ref_axis',(1.,-3.90798504668054E-15,0.));
#719=DIRECTION('center_axis',(3.90798504668054E-15,1.,0.));
#720=DIRECTION('ref_axis',(1.,-3.90882295085008E-15,0.));
#721=DIRECTION('',(-3.90798504668054E-15,-1.,0.));
#722=CARTESIAN_POINT('',(0.,0.,0.));
#723=CARTESIAN_POINT('Origin',(77.7817459305203,15.0000000000004,-77.7817459305202));
#724=CARTESIAN_POINT('',(70.7106781186548,15.0000000000004,-84.8528137423857));
#725=CARTESIAN_POINT('Origin',(77.7817459305203,15.0000000000004,-77.7817459305202));
#726=CARTESIAN_POINT('',(73.8926586339943,15.0000000000004,-81.6708332270462));
#727=CARTESIAN_POINT('Origin',(77.7817459305203,15.0000000000004,-77.7817459305202));
#728=CARTESIAN_POINT('Origin',(77.7817459305203,20.0000000000004,-77.7817459305202));
#729=CARTESIAN_POINT('',(70.7106781186548,25.0000000000004,-84.8528137423856));
#730=CARTESIAN_POINT('Origin',(77.7817459305203,25.0000000000003,-77.7817459305201));
#731=CARTESIAN_POINT('',(70.7106781186548,20.0000000000004,-84.8528137423856));
#732=CARTESIAN_POINT('Origin',(77.7817459305193,-350.599520766467,-77.7817459305212));
#733=CARTESIAN_POINT('',(73.8926586339942,5.18873832788813E-13,-81.6708332270462));
#734=CARTESIAN_POINT('',(73.8926586339933,-350.599520766467,-81.6708332270472));
#735=CARTESIAN_POINT('Origin',(77.7817459305203,3.5527136788005E-13,-77.7817459305202));
#736=CARTESIAN_POINT('Origin',(110.,15.0000000000004,7.99360577730113E-14));
#737=CARTESIAN_POINT('',(110.,15.0000000000004,-9.99999999999992));
#738=CARTESIAN_POINT('Origin',(110.,15.0000000000004,7.99360577730113E-14));
#739=CARTESIAN_POINT('',(110.,15.0000000000004,-5.49999999999993));
#740=CARTESIAN_POINT('Origin',(110.,15.0000000000004,7.99360577730113E-14));
#741=CARTESIAN_POINT('Origin',(110.,20.0000000000004,9.76996261670138E-14));
#742=CARTESIAN_POINT('',(110.,25.0000000000001,-9.99999999999988));
#743=CARTESIAN_POINT('Origin',(110.,25.,1.17239551400415E-13));
#744=CARTESIAN_POINT('',(110.,20.0000000000004,-9.9999999999999));
#745=CARTESIAN_POINT('Origin',(110.,-350.599520766467,-1.35003119794419E-12));
#746=CARTESIAN_POINT('',(110.,5.18873832788813E-13,-5.49999999999999));
#747=CARTESIAN_POINT('',(110.,-350.599520766467,-5.50000000000135));
#748=CARTESIAN_POINT('Origin',(110.,0.,2.0106486584528E-14));
#749=CARTESIAN_POINT('Origin',(77.7817459305202,15.0000000000004,77.7817459305203));
#750=CARTESIAN_POINT('',(84.8528137423857,15.0000000000004,70.7106781186548));
#751=CARTESIAN_POINT('Origin',(77.7817459305202,15.0000000000004,77.7817459305203));
#752=CARTESIAN_POINT('',(81.6708332270462,15.0000000000004,73.8926586339943));
#753=CARTESIAN_POINT('Origin',(77.7817459305202,15.0000000000004,77.7817459305203));
#754=CARTESIAN_POINT('Origin',(77.7817459305202,20.0000000000004,77.7817459305203));
#755=CARTESIAN_POINT('',(84.8528137423856,24.9999999999999,70.7106781186548));
#756=CARTESIAN_POINT('Origin',(77.7817459305202,24.9999999999998,77.7817459305203));
#757=CARTESIAN_POINT('',(84.8528137423856,20.0000000000004,70.7106781186548));
#758=CARTESIAN_POINT('Origin',(77.7817459305212,-350.599520766467,77.7817459305193));
#759=CARTESIAN_POINT('',(81.6708332270462,5.18873832788813E-13,73.8926586339942));
#760=CARTESIAN_POINT('',(81.6708332270472,-350.599520766467,73.8926586339933));
#761=CARTESIAN_POINT('Origin',(77.7817459305202,-3.5527136788005E-13,77.7817459305202));
#762=CARTESIAN_POINT('Origin',(-7.99360577730113E-14,15.0000000000004,110.));
#763=CARTESIAN_POINT('',(9.99999999999992,15.0000000000004,110.));
#764=CARTESIAN_POINT('Origin',(-7.99360577730113E-14,15.0000000000004,110.));
#765=CARTESIAN_POINT('',(5.49999999999993,15.0000000000004,110.));
#766=CARTESIAN_POINT('Origin',(-7.99360577730113E-14,15.0000000000004,110.));
#767=CARTESIAN_POINT('Origin',(-9.76996261670138E-14,20.0000000000004,110.));
#768=CARTESIAN_POINT('',(9.99999999999988,24.9999999999997,110.));
#769=CARTESIAN_POINT('Origin',(-1.17239551400414E-13,24.9999999999997,110.));
#770=CARTESIAN_POINT('',(9.9999999999999,20.0000000000004,110.));
#771=CARTESIAN_POINT('Origin',(1.35003119794419E-12,-350.599520766467,110.));
#772=CARTESIAN_POINT('',(5.49999999999999,5.18873832788813E-13,110.));
#773=CARTESIAN_POINT('',(5.50000000000135,-350.599520766467,110.));
#774=CARTESIAN_POINT('Origin',(-2.0106486584526E-14,-4.9737991503207E-13,
110.));
#775=CARTESIAN_POINT('Origin',(-77.7817459305203,15.0000000000004,77.7817459305202));
#776=CARTESIAN_POINT('',(-70.7106781186548,15.0000000000004,84.8528137423857));
#777=CARTESIAN_POINT('Origin',(-77.7817459305203,15.0000000000004,77.7817459305202));
#778=CARTESIAN_POINT('',(-73.8926586339943,15.0000000000004,81.6708332270462));
#779=CARTESIAN_POINT('Origin',(-77.7817459305203,15.0000000000004,77.7817459305202));
#780=CARTESIAN_POINT('Origin',(-77.7817459305203,20.0000000000004,77.7817459305202));
#781=CARTESIAN_POINT('',(-70.7106781186548,24.9999999999999,84.8528137423856));
#782=CARTESIAN_POINT('Origin',(-77.7817459305203,24.9999999999998,77.7817459305202));
#783=CARTESIAN_POINT('',(-70.7106781186548,20.0000000000004,84.8528137423856));
#784=CARTESIAN_POINT('Origin',(-77.7817459305193,-350.599520766467,77.7817459305212));
#785=CARTESIAN_POINT('',(-73.8926586339942,5.18873832788813E-13,81.6708332270462));
#786=CARTESIAN_POINT('',(-73.8926586339933,-350.599520766467,81.6708332270472));
#787=CARTESIAN_POINT('Origin',(-77.7817459305202,-3.5527136788005E-13,77.7817459305202));
#788=CARTESIAN_POINT('Origin',(-110.,15.0000000000004,-6.21724893790088E-14));
#789=CARTESIAN_POINT('',(-110.,15.0000000000004,9.99999999999995));
#790=CARTESIAN_POINT('Origin',(-110.,15.0000000000004,-6.21724893790088E-14));
#791=CARTESIAN_POINT('',(-110.,15.0000000000004,5.49999999999994));
#792=CARTESIAN_POINT('Origin',(-110.,15.0000000000004,-6.21724893790088E-14));
#793=CARTESIAN_POINT('Origin',(-110.,20.0000000000004,-7.105427357601E-14));
#794=CARTESIAN_POINT('',(-110.,25.0000000000001,9.99999999999991));
#795=CARTESIAN_POINT('Origin',(-110.,25.,-9.05941988094114E-14));
#796=CARTESIAN_POINT('',(-110.,20.0000000000004,9.99999999999993));
#797=CARTESIAN_POINT('Origin',(-110.,-350.599520766467,1.36779476633819E-12));
#798=CARTESIAN_POINT('',(-110.,5.18873832788813E-13,5.5));
#799=CARTESIAN_POINT('',(-110.,-350.599520766467,5.50000000000137));
#800=CARTESIAN_POINT('Origin',(-110.,0.,-2.34291819052549E-15));
#801=CARTESIAN_POINT('Origin',(-77.7817459305202,15.0000000000004,-77.7817459305203));
#802=CARTESIAN_POINT('',(-84.8528137423857,15.0000000000004,-70.7106781186548));
#803=CARTESIAN_POINT('Origin',(-77.7817459305202,15.0000000000004,-77.7817459305203));
#804=CARTESIAN_POINT('',(-81.6708332270462,15.0000000000004,-73.8926586339943));
#805=CARTESIAN_POINT('Origin',(-77.7817459305202,15.0000000000004,-77.7817459305203));
#806=CARTESIAN_POINT('Origin',(-77.7817459305202,20.0000000000004,-77.7817459305203));
#807=CARTESIAN_POINT('',(-84.8528137423856,25.0000000000004,-70.7106781186548));
#808=CARTESIAN_POINT('Origin',(-77.7817459305202,25.0000000000003,-77.7817459305203));
#809=CARTESIAN_POINT('',(-84.8528137423857,20.0000000000004,-70.7106781186548));
#810=CARTESIAN_POINT('Origin',(-77.7817459305212,-350.599520766467,-77.7817459305193));
#811=CARTESIAN_POINT('',(-81.6708332270462,5.18873832788813E-13,-73.8926586339942));
#812=CARTESIAN_POINT('',(-81.6708332270472,-350.599520766467,-73.8926586339932));
#813=CARTESIAN_POINT('Origin',(-77.7817459305202,3.5527136788005E-13,-77.7817459305202));
#814=CARTESIAN_POINT('Origin',(5.86197757002097E-14,15.0000000000004,-110.));
#815=CARTESIAN_POINT('',(-9.99999999999994,15.0000000000004,-110.));
#816=CARTESIAN_POINT('Origin',(5.86197757002097E-14,15.0000000000004,-110.));
#817=CARTESIAN_POINT('',(-5.49999999999994,15.0000000000004,-110.));
#818=CARTESIAN_POINT('Origin',(5.86197757002097E-14,15.0000000000004,-110.));
#819=CARTESIAN_POINT('Origin',(7.81597009336124E-14,20.0000000000004,-110.));
#820=CARTESIAN_POINT('',(-9.9999999999999,25.0000000000004,-110.));
#821=CARTESIAN_POINT('Origin',(9.76996261670152E-14,25.0000000000004,-110.));
#822=CARTESIAN_POINT('',(-9.99999999999992,20.0000000000004,-110.));
#823=CARTESIAN_POINT('Origin',(-1.37013768452872E-12,-350.599520766467,
-110.));
#824=CARTESIAN_POINT('',(-5.5,5.18873832788813E-13,-110.));
#825=CARTESIAN_POINT('',(-5.50000000000137,-350.599520766467,-110.));
#826=CARTESIAN_POINT('Origin',(1.76704842769507E-27,4.9737991503207E-13,
-110.));
#827=CARTESIAN_POINT('Origin',(129.,3.00000000000002,0.));
#828=CARTESIAN_POINT('',(-132.5,3.00000000000106,1.62265700887024E-14));
#829=CARTESIAN_POINT('Origin',(-8.597567102697E-14,3.00000000000054,0.));
#830=CARTESIAN_POINT('',(-129.,3.00000000000103,1.57979437090009E-14));
#831=CARTESIAN_POINT('Origin',(-8.59756710269701E-14,3.00000000000052,0.));
#832=CARTESIAN_POINT('Origin',(-4.29878355134841E-14,14.0000000000005,0.));
#833=CARTESIAN_POINT('',(-129.,25.0000000000011,1.57979437090009E-14));
#834=CARTESIAN_POINT('Origin',(1.98792948115695E-27,25.0000000000006,0.));
#835=CARTESIAN_POINT('',(-129.,14.000000000001,1.57979437090009E-14));
#836=CARTESIAN_POINT('Origin',(90.,25.,0.));
#837=CARTESIAN_POINT('',(-90.,25.0000000000007,1.10218211923262E-14));
#838=CARTESIAN_POINT('Origin',(1.37261797508456E-27,25.0000000000004,0.));
#839=CARTESIAN_POINT('Origin',(-4.88498130835055E-14,12.5000000000004,0.));
#840=CARTESIAN_POINT('',(-90.0000000000001,7.01660951563099E-13,1.10218211923262E-14));
#841=CARTESIAN_POINT('',(-90.0000000000001,12.5000000000007,1.10218211923262E-14));
#842=CARTESIAN_POINT('Origin',(-9.76996261670124E-14,3.51663143050018E-13,
0.));
#843=CARTESIAN_POINT('Origin',(132.5,0.,0.));
#844=CARTESIAN_POINT('',(-132.5,1.03583808197527E-12,1.62265700887024E-14));
#845=CARTESIAN_POINT('Origin',(-9.76996261670118E-14,5.17919040987636E-13,
0.));
#846=CARTESIAN_POINT('Origin',(-9.18376485969909E-14,1.50000000000053,0.));
#847=CARTESIAN_POINT('',(-132.5,1.50000000000105,1.62265700887024E-14));
#848=UNCERTAINTY_MEASURE_WITH_UNIT(LENGTH_MEASURE(0.01),#852,
'DISTANCE_ACCURACY_VALUE',
'Maximum model space distance between geometric entities at asserted c
onnectivities');
#849=UNCERTAINTY_MEASURE_WITH_UNIT(LENGTH_MEASURE(0.01),#852,
'DISTANCE_ACCURACY_VALUE',
'Maximum model space distance between geometric entities at asserted c
onnectivities');
#850=(
GEOMETRIC_REPRESENTATION_CONTEXT(3)
GLOBAL_UNCERTAINTY_ASSIGNED_CONTEXT((#848))
GLOBAL_UNIT_ASSIGNED_CONTEXT((#852,#854,#855))
REPRESENTATION_CONTEXT('','3D')
);
#851=(
GEOMETRIC_REPRESENTATION_CONTEXT(3)
GLOBAL_UNCERTAINTY_ASSIGNED_CONTEXT((#849))
GLOBAL_UNIT_ASSIGNED_CONTEXT((#852,#854,#855))
REPRESENTATION_CONTEXT('','3D')
);
#852=(
LENGTH_UNIT()
NAMED_UNIT(*)
SI_UNIT(.MILLI.,.METRE.)
);
#853=(
LENGTH_UNIT()
NAMED_UNIT(*)
SI_UNIT(.CENTI.,.METRE.)
);
#854=(
NAMED_UNIT(*)
PLANE_ANGLE_UNIT()
SI_UNIT($,.RADIAN.)
);
#855=(
NAMED_UNIT(*)
SI_UNIT($,.STERADIAN.)
SOLID_ANGLE_UNIT()
);
#856=SHAPE_DEFINITION_REPRESENTATION(#857,#858);
#857=PRODUCT_DEFINITION_SHAPE('',$,#860);
#858=SHAPE_REPRESENTATION('',(#496),#850);
#859=PRODUCT_DEFINITION_CONTEXT('part definition',#864,'design');
#860=PRODUCT_DEFINITION(
'DMF 01 31 \X2\041104300440043004310430043D\X0\ \X2\041E043F043E0440043D043E0435\X0\ 
\X2\043A043E043B044C0446043E\X0\ \X2\041D041E0421\X0\ v2.1',
'DMF 01 31 \X2\041104300440043004310430043D\X0\ \X2\041E043F043E0440043D043E0435\X0\ 
\X2\043A043E043B044C0446043E\X0\ \X2\041D041E0421\X0\ v2.1',#861,#859);
#861=PRODUCT_DEFINITION_FORMATION('',$,#866);
#862=PRODUCT_RELATED_PRODUCT_CATEGORY(
'DMF 01 31 \X2\041104300440043004310430043D\X0\ \X2\041E043F043E0440043D043E0435\X0\ 
\X2\043A043E043B044C0446043E\X0\ \X2\041D041E0421\X0\ v2.1',
'DMF 01 31 \X2\041104300440043004310430043D\X0\ \X2\041E043F043E0440043D043E0435\X0\ 
\X2\043A043E043B044C0446043E\X0\ \X2\041D041E0421\X0\ v2.1',(#866));
#863=APPLICATION_PROTOCOL_DEFINITION('international standard',
'automotive_design',2009,#864);
#864=APPLICATION_CONTEXT(
'Core Data for Automotive Mechanical Design Process');
#865=PRODUCT_CONTEXT('part definition',#864,'mechanical');
#866=PRODUCT(
'DMF 01 31 \X2\041104300440043004310430043D\X0\ \X2\041E043F043E0440043D043E0435\X0\ 
\X2\043A043E043B044C0446043E\X0\ \X2\041D041E0421\X0\ v2.1',
'DMF 01 31 \X2\041104300440043004310430043D\X0\ \X2\041E043F043E0440043D043E0435\X0\ 
\X2\043A043E043B044C0446043E\X0\ \X2\041D041E0421\X0\ v2.1',$,(#865));
#867=PRESENTATION_STYLE_ASSIGNMENT((#868));
#868=SURFACE_STYLE_USAGE(.BOTH.,#871);
#869=SURFACE_STYLE_RENDERING_WITH_PROPERTIES($,#875,(#870));
#870=SURFACE_STYLE_TRANSPARENT(0.);
#871=SURFACE_SIDE_STYLE('',(#872,#869));
#872=SURFACE_STYLE_FILL_AREA(#873);
#873=FILL_AREA_STYLE('',(#874));
#874=FILL_AREA_STYLE_COLOUR('',#875);
#875=COLOUR_RGB('',1.,0.968627450980392,0.725490196078431);
ENDSEC;
END-ISO-10303-21;
