ISO-10303-21;
HEADER;
/* Generated by software containing ST-Developer
 * from STEP Tools, Inc. (www.steptools.com) 
 */

FILE_DESCRIPTION(
/* description */ (''),
/* implementation_level */ '2;1');

FILE_NAME(
/* name */ 'DMF 2142 U-pillar.stp',
/* time_stamp */ '2026-06-04T11:41:00+03:00',
/* author */ ('admin'),
/* organization */ (''),
/* preprocessor_version */ 'ST-DEVELOPER v20.1',
/* originating_system */ 'Autodesk Inventor 2026',
/* authorisation */ '');

FILE_SCHEMA (('AUTOMOTIVE_DESIGN { 1 0 10303 214 3 1 1 }'));
ENDSEC;

DATA;
#10=MECHANICAL_DESIGN_GEOMETRIC_PRESENTATION_REPRESENTATION('',(#13),#910);
#11=SHAPE_REPRESENTATION_RELATIONSHIP('SRR','None',#917,#12);
#12=ADVANCED_BREP_SHAPE_REPRESENTATION('',(#14),#909);
#13=STYLED_ITEM('',(#926),#14);
#14=MANIFOLD_SOLID_BREP('Solid1',#521);
#15=LINE('',#775,#49);
#16=LINE('',#778,#50);
#17=LINE('',#788,#51);
#18=LINE('',#791,#52);
#19=LINE('',#801,#53);
#20=LINE('',#804,#54);
#21=LINE('',#814,#55);
#22=LINE('',#817,#56);
#23=LINE('',#827,#57);
#24=LINE('',#830,#58);
#25=LINE('',#840,#59);
#26=LINE('',#843,#60);
#27=LINE('',#849,#61);
#28=LINE('',#854,#62);
#29=LINE('',#856,#63);
#30=LINE('',#858,#64);
#31=LINE('',#859,#65);
#32=LINE('',#862,#66);
#33=LINE('',#864,#67);
#34=LINE('',#865,#68);
#35=LINE('',#868,#69);
#36=LINE('',#870,#70);
#37=LINE('',#871,#71);
#38=LINE('',#876,#72);
#39=LINE('',#881,#73);
#40=LINE('',#883,#74);
#41=LINE('',#885,#75);
#42=LINE('',#886,#76);
#43=LINE('',#889,#77);
#44=LINE('',#891,#78);
#45=LINE('',#892,#79);
#46=LINE('',#895,#80);
#47=LINE('',#897,#81);
#48=LINE('',#898,#82);
#49=VECTOR('',#618,10.);
#50=VECTOR('',#621,5.5);
#51=VECTOR('',#634,10.);
#52=VECTOR('',#637,5.5);
#53=VECTOR('',#650,10.);
#54=VECTOR('',#653,5.5);
#55=VECTOR('',#666,10.);
#56=VECTOR('',#669,5.5);
#57=VECTOR('',#682,10.);
#58=VECTOR('',#685,5.5);
#59=VECTOR('',#698,10.);
#60=VECTOR('',#701,5.5);
#61=VECTOR('',#708,5.5);
#62=VECTOR('',#713,10.);
#63=VECTOR('',#714,10.);
#64=VECTOR('',#715,10.);
#65=VECTOR('',#716,10.);
#66=VECTOR('',#719,10.);
#67=VECTOR('',#720,10.);
#68=VECTOR('',#721,10.);
#69=VECTOR('',#724,10.);
#70=VECTOR('',#725,10.);
#71=VECTOR('',#726,10.);
#72=VECTOR('',#731,5.5);
#73=VECTOR('',#736,10.);
#74=VECTOR('',#737,10.);
#75=VECTOR('',#738,10.);
#76=VECTOR('',#739,10.);
#77=VECTOR('',#742,10.);
#78=VECTOR('',#743,10.);
#79=VECTOR('',#744,10.);
#80=VECTOR('',#747,10.);
#81=VECTOR('',#748,10.);
#82=VECTOR('',#749,10.);
#83=CYLINDRICAL_SURFACE('',#547,10.);
#84=CYLINDRICAL_SURFACE('',#549,5.5);
#85=CYLINDRICAL_SURFACE('',#554,10.);
#86=CYLINDRICAL_SURFACE('',#556,5.5);
#87=CYLINDRICAL_SURFACE('',#561,10.);
#88=CYLINDRICAL_SURFACE('',#563,5.5);
#89=CYLINDRICAL_SURFACE('',#568,10.);
#90=CYLINDRICAL_SURFACE('',#570,5.5);
#91=CYLINDRICAL_SURFACE('',#575,10.);
#92=CYLINDRICAL_SURFACE('',#577,5.5);
#93=CYLINDRICAL_SURFACE('',#582,10.);
#94=CYLINDRICAL_SURFACE('',#584,5.5);
#95=CYLINDRICAL_SURFACE('',#586,5.5);
#96=CYLINDRICAL_SURFACE('',#592,5.5);
#97=CYLINDRICAL_SURFACE('',#598,170.);
#98=CYLINDRICAL_SURFACE('',#601,130.);
#99=FACE_BOUND('',#152,.T.);
#100=FACE_BOUND('',#156,.T.);
#101=FACE_BOUND('',#160,.T.);
#102=FACE_BOUND('',#164,.T.);
#103=FACE_BOUND('',#168,.T.);
#104=FACE_BOUND('',#172,.T.);
#105=FACE_BOUND('',#177,.T.);
#106=FACE_BOUND('',#180,.T.);
#107=FACE_BOUND('',#183,.T.);
#108=FACE_BOUND('',#186,.T.);
#109=FACE_BOUND('',#190,.T.);
#110=FACE_BOUND('',#191,.T.);
#111=FACE_BOUND('',#192,.T.);
#112=FACE_BOUND('',#193,.T.);
#113=FACE_BOUND('',#194,.T.);
#114=FACE_BOUND('',#195,.T.);
#115=FACE_BOUND('',#197,.T.);
#116=FACE_BOUND('',#198,.T.);
#117=FACE_BOUND('',#199,.T.);
#118=FACE_BOUND('',#200,.T.);
#119=FACE_BOUND('',#201,.T.);
#120=FACE_BOUND('',#202,.T.);
#121=FACE_OUTER_BOUND('',#151,.T.);
#122=FACE_OUTER_BOUND('',#153,.T.);
#123=FACE_OUTER_BOUND('',#154,.T.);
#124=FACE_OUTER_BOUND('',#155,.T.);
#125=FACE_OUTER_BOUND('',#157,.T.);
#126=FACE_OUTER_BOUND('',#158,.T.);
#127=FACE_OUTER_BOUND('',#159,.T.);
#128=FACE_OUTER_BOUND('',#161,.T.);
#129=FACE_OUTER_BOUND('',#162,.T.);
#130=FACE_OUTER_BOUND('',#163,.T.);
#131=FACE_OUTER_BOUND('',#165,.T.);
#132=FACE_OUTER_BOUND('',#166,.T.);
#133=FACE_OUTER_BOUND('',#167,.T.);
#134=FACE_OUTER_BOUND('',#169,.T.);
#135=FACE_OUTER_BOUND('',#170,.T.);
#136=FACE_OUTER_BOUND('',#171,.T.);
#137=FACE_OUTER_BOUND('',#173,.T.);
#138=FACE_OUTER_BOUND('',#174,.T.);
#139=FACE_OUTER_BOUND('',#175,.T.);
#140=FACE_OUTER_BOUND('',#176,.T.);
#141=FACE_OUTER_BOUND('',#178,.T.);
#142=FACE_OUTER_BOUND('',#179,.T.);
#143=FACE_OUTER_BOUND('',#181,.T.);
#144=FACE_OUTER_BOUND('',#182,.T.);
#145=FACE_OUTER_BOUND('',#184,.T.);
#146=FACE_OUTER_BOUND('',#185,.T.);
#147=FACE_OUTER_BOUND('',#187,.T.);
#148=FACE_OUTER_BOUND('',#188,.T.);
#149=FACE_OUTER_BOUND('',#189,.T.);
#150=FACE_OUTER_BOUND('',#196,.T.);
#151=EDGE_LOOP('',(#345));
#152=EDGE_LOOP('',(#346));
#153=EDGE_LOOP('',(#347,#348,#349,#350));
#154=EDGE_LOOP('',(#351,#352,#353,#354));
#155=EDGE_LOOP('',(#355));
#156=EDGE_LOOP('',(#356));
#157=EDGE_LOOP('',(#357,#358,#359,#360));
#158=EDGE_LOOP('',(#361,#362,#363,#364));
#159=EDGE_LOOP('',(#365));
#160=EDGE_LOOP('',(#366));
#161=EDGE_LOOP('',(#367,#368,#369,#370));
#162=EDGE_LOOP('',(#371,#372,#373,#374));
#163=EDGE_LOOP('',(#375));
#164=EDGE_LOOP('',(#376));
#165=EDGE_LOOP('',(#377,#378,#379,#380));
#166=EDGE_LOOP('',(#381,#382,#383,#384));
#167=EDGE_LOOP('',(#385));
#168=EDGE_LOOP('',(#386));
#169=EDGE_LOOP('',(#387,#388,#389,#390));
#170=EDGE_LOOP('',(#391,#392,#393,#394));
#171=EDGE_LOOP('',(#395));
#172=EDGE_LOOP('',(#396));
#173=EDGE_LOOP('',(#397,#398,#399,#400));
#174=EDGE_LOOP('',(#401,#402,#403,#404));
#175=EDGE_LOOP('',(#405,#406,#407,#408));
#176=EDGE_LOOP('',(#409,#410,#411,#412));
#177=EDGE_LOOP('',(#413));
#178=EDGE_LOOP('',(#414,#415,#416,#417));
#179=EDGE_LOOP('',(#418,#419,#420,#421));
#180=EDGE_LOOP('',(#422));
#181=EDGE_LOOP('',(#423,#424,#425,#426));
#182=EDGE_LOOP('',(#427,#428,#429,#430));
#183=EDGE_LOOP('',(#431));
#184=EDGE_LOOP('',(#432,#433,#434,#435));
#185=EDGE_LOOP('',(#436,#437,#438,#439));
#186=EDGE_LOOP('',(#440));
#187=EDGE_LOOP('',(#441,#442,#443,#444));
#188=EDGE_LOOP('',(#445,#446,#447,#448));
#189=EDGE_LOOP('',(#449,#450,#451,#452,#453,#454,#455,#456));
#190=EDGE_LOOP('',(#457));
#191=EDGE_LOOP('',(#458));
#192=EDGE_LOOP('',(#459));
#193=EDGE_LOOP('',(#460));
#194=EDGE_LOOP('',(#461));
#195=EDGE_LOOP('',(#462));
#196=EDGE_LOOP('',(#463,#464,#465,#466,#467,#468,#469,#470));
#197=EDGE_LOOP('',(#471));
#198=EDGE_LOOP('',(#472));
#199=EDGE_LOOP('',(#473));
#200=EDGE_LOOP('',(#474));
#201=EDGE_LOOP('',(#475));
#202=EDGE_LOOP('',(#476));
#203=CIRCLE('',#545,10.);
#204=CIRCLE('',#546,5.5);
#205=CIRCLE('',#548,10.);
#206=CIRCLE('',#550,5.5);
#207=CIRCLE('',#552,10.);
#208=CIRCLE('',#553,5.5);
#209=CIRCLE('',#555,10.);
#210=CIRCLE('',#557,5.5);
#211=CIRCLE('',#559,10.);
#212=CIRCLE('',#560,5.5);
#213=CIRCLE('',#562,10.);
#214=CIRCLE('',#564,5.5);
#215=CIRCLE('',#566,10.);
#216=CIRCLE('',#567,5.5);
#217=CIRCLE('',#569,10.);
#218=CIRCLE('',#571,5.5);
#219=CIRCLE('',#573,10.);
#220=CIRCLE('',#574,5.5);
#221=CIRCLE('',#576,10.);
#222=CIRCLE('',#578,5.5);
#223=CIRCLE('',#580,10.);
#224=CIRCLE('',#581,5.5);
#225=CIRCLE('',#583,10.);
#226=CIRCLE('',#585,5.5);
#227=CIRCLE('',#587,5.5);
#228=CIRCLE('',#588,5.5);
#229=CIRCLE('',#593,5.5);
#230=CIRCLE('',#594,5.5);
#231=CIRCLE('',#599,170.);
#232=CIRCLE('',#600,170.);
#233=CIRCLE('',#602,130.);
#234=CIRCLE('',#603,130.);
#235=VERTEX_POINT('',#768);
#236=VERTEX_POINT('',#770);
#237=VERTEX_POINT('',#773);
#238=VERTEX_POINT('',#777);
#239=VERTEX_POINT('',#781);
#240=VERTEX_POINT('',#783);
#241=VERTEX_POINT('',#786);
#242=VERTEX_POINT('',#790);
#243=VERTEX_POINT('',#794);
#244=VERTEX_POINT('',#796);
#245=VERTEX_POINT('',#799);
#246=VERTEX_POINT('',#803);
#247=VERTEX_POINT('',#807);
#248=VERTEX_POINT('',#809);
#249=VERTEX_POINT('',#812);
#250=VERTEX_POINT('',#816);
#251=VERTEX_POINT('',#820);
#252=VERTEX_POINT('',#822);
#253=VERTEX_POINT('',#825);
#254=VERTEX_POINT('',#829);
#255=VERTEX_POINT('',#833);
#256=VERTEX_POINT('',#835);
#257=VERTEX_POINT('',#838);
#258=VERTEX_POINT('',#842);
#259=VERTEX_POINT('',#846);
#260=VERTEX_POINT('',#848);
#261=VERTEX_POINT('',#852);
#262=VERTEX_POINT('',#853);
#263=VERTEX_POINT('',#855);
#264=VERTEX_POINT('',#857);
#265=VERTEX_POINT('',#861);
#266=VERTEX_POINT('',#863);
#267=VERTEX_POINT('',#867);
#268=VERTEX_POINT('',#869);
#269=VERTEX_POINT('',#873);
#270=VERTEX_POINT('',#875);
#271=VERTEX_POINT('',#879);
#272=VERTEX_POINT('',#880);
#273=VERTEX_POINT('',#882);
#274=VERTEX_POINT('',#884);
#275=VERTEX_POINT('',#888);
#276=VERTEX_POINT('',#890);
#277=VERTEX_POINT('',#894);
#278=VERTEX_POINT('',#896);
#279=EDGE_CURVE('',#235,#235,#203,.T.);
#280=EDGE_CURVE('',#236,#236,#204,.T.);
#281=EDGE_CURVE('',#237,#237,#205,.T.);
#282=EDGE_CURVE('',#237,#235,#15,.T.);
#283=EDGE_CURVE('',#236,#238,#16,.T.);
#284=EDGE_CURVE('',#238,#238,#206,.T.);
#285=EDGE_CURVE('',#239,#239,#207,.T.);
#286=EDGE_CURVE('',#240,#240,#208,.T.);
#287=EDGE_CURVE('',#241,#241,#209,.T.);
#288=EDGE_CURVE('',#241,#239,#17,.T.);
#289=EDGE_CURVE('',#240,#242,#18,.T.);
#290=EDGE_CURVE('',#242,#242,#210,.T.);
#291=EDGE_CURVE('',#243,#243,#211,.T.);
#292=EDGE_CURVE('',#244,#244,#212,.T.);
#293=EDGE_CURVE('',#245,#245,#213,.T.);
#294=EDGE_CURVE('',#245,#243,#19,.T.);
#295=EDGE_CURVE('',#244,#246,#20,.T.);
#296=EDGE_CURVE('',#246,#246,#214,.T.);
#297=EDGE_CURVE('',#247,#247,#215,.T.);
#298=EDGE_CURVE('',#248,#248,#216,.T.);
#299=EDGE_CURVE('',#249,#249,#217,.T.);
#300=EDGE_CURVE('',#249,#247,#21,.T.);
#301=EDGE_CURVE('',#248,#250,#22,.T.);
#302=EDGE_CURVE('',#250,#250,#218,.T.);
#303=EDGE_CURVE('',#251,#251,#219,.T.);
#304=EDGE_CURVE('',#252,#252,#220,.T.);
#305=EDGE_CURVE('',#253,#253,#221,.T.);
#306=EDGE_CURVE('',#253,#251,#23,.T.);
#307=EDGE_CURVE('',#252,#254,#24,.T.);
#308=EDGE_CURVE('',#254,#254,#222,.T.);
#309=EDGE_CURVE('',#255,#255,#223,.T.);
#310=EDGE_CURVE('',#256,#256,#224,.T.);
#311=EDGE_CURVE('',#257,#257,#225,.T.);
#312=EDGE_CURVE('',#257,#255,#25,.T.);
#313=EDGE_CURVE('',#256,#258,#26,.T.);
#314=EDGE_CURVE('',#258,#258,#226,.T.);
#315=EDGE_CURVE('',#259,#259,#227,.T.);
#316=EDGE_CURVE('',#259,#260,#27,.T.);
#317=EDGE_CURVE('',#260,#260,#228,.T.);
#318=EDGE_CURVE('',#261,#262,#28,.T.);
#319=EDGE_CURVE('',#262,#263,#29,.T.);
#320=EDGE_CURVE('',#263,#264,#30,.T.);
#321=EDGE_CURVE('',#261,#264,#31,.T.);
#322=EDGE_CURVE('',#262,#265,#32,.T.);
#323=EDGE_CURVE('',#265,#266,#33,.T.);
#324=EDGE_CURVE('',#266,#263,#34,.T.);
#325=EDGE_CURVE('',#265,#267,#35,.T.);
#326=EDGE_CURVE('',#267,#268,#36,.T.);
#327=EDGE_CURVE('',#268,#266,#37,.T.);
#328=EDGE_CURVE('',#269,#269,#229,.T.);
#329=EDGE_CURVE('',#269,#270,#38,.T.);
#330=EDGE_CURVE('',#270,#270,#230,.T.);
#331=EDGE_CURVE('',#271,#272,#39,.T.);
#332=EDGE_CURVE('',#271,#273,#40,.T.);
#333=EDGE_CURVE('',#274,#273,#41,.T.);
#334=EDGE_CURVE('',#272,#274,#42,.T.);
#335=EDGE_CURVE('',#272,#275,#43,.T.);
#336=EDGE_CURVE('',#276,#274,#44,.T.);
#337=EDGE_CURVE('',#275,#276,#45,.T.);
#338=EDGE_CURVE('',#275,#277,#46,.T.);
#339=EDGE_CURVE('',#278,#276,#47,.T.);
#340=EDGE_CURVE('',#277,#278,#48,.T.);
#341=EDGE_CURVE('',#277,#267,#231,.T.);
#342=EDGE_CURVE('',#278,#268,#232,.T.);
#343=EDGE_CURVE('',#261,#271,#233,.T.);
#344=EDGE_CURVE('',#273,#264,#234,.T.);
#345=ORIENTED_EDGE('',*,*,#279,.T.);
#346=ORIENTED_EDGE('',*,*,#280,.F.);
#347=ORIENTED_EDGE('',*,*,#281,.F.);
#348=ORIENTED_EDGE('',*,*,#282,.T.);
#349=ORIENTED_EDGE('',*,*,#279,.F.);
#350=ORIENTED_EDGE('',*,*,#282,.F.);
#351=ORIENTED_EDGE('',*,*,#280,.T.);
#352=ORIENTED_EDGE('',*,*,#283,.T.);
#353=ORIENTED_EDGE('',*,*,#284,.F.);
#354=ORIENTED_EDGE('',*,*,#283,.F.);
#355=ORIENTED_EDGE('',*,*,#285,.T.);
#356=ORIENTED_EDGE('',*,*,#286,.F.);
#357=ORIENTED_EDGE('',*,*,#287,.F.);
#358=ORIENTED_EDGE('',*,*,#288,.T.);
#359=ORIENTED_EDGE('',*,*,#285,.F.);
#360=ORIENTED_EDGE('',*,*,#288,.F.);
#361=ORIENTED_EDGE('',*,*,#286,.T.);
#362=ORIENTED_EDGE('',*,*,#289,.T.);
#363=ORIENTED_EDGE('',*,*,#290,.F.);
#364=ORIENTED_EDGE('',*,*,#289,.F.);
#365=ORIENTED_EDGE('',*,*,#291,.T.);
#366=ORIENTED_EDGE('',*,*,#292,.F.);
#367=ORIENTED_EDGE('',*,*,#293,.F.);
#368=ORIENTED_EDGE('',*,*,#294,.T.);
#369=ORIENTED_EDGE('',*,*,#291,.F.);
#370=ORIENTED_EDGE('',*,*,#294,.F.);
#371=ORIENTED_EDGE('',*,*,#292,.T.);
#372=ORIENTED_EDGE('',*,*,#295,.T.);
#373=ORIENTED_EDGE('',*,*,#296,.F.);
#374=ORIENTED_EDGE('',*,*,#295,.F.);
#375=ORIENTED_EDGE('',*,*,#297,.T.);
#376=ORIENTED_EDGE('',*,*,#298,.F.);
#377=ORIENTED_EDGE('',*,*,#299,.F.);
#378=ORIENTED_EDGE('',*,*,#300,.T.);
#379=ORIENTED_EDGE('',*,*,#297,.F.);
#380=ORIENTED_EDGE('',*,*,#300,.F.);
#381=ORIENTED_EDGE('',*,*,#298,.T.);
#382=ORIENTED_EDGE('',*,*,#301,.T.);
#383=ORIENTED_EDGE('',*,*,#302,.F.);
#384=ORIENTED_EDGE('',*,*,#301,.F.);
#385=ORIENTED_EDGE('',*,*,#303,.T.);
#386=ORIENTED_EDGE('',*,*,#304,.F.);
#387=ORIENTED_EDGE('',*,*,#305,.F.);
#388=ORIENTED_EDGE('',*,*,#306,.T.);
#389=ORIENTED_EDGE('',*,*,#303,.F.);
#390=ORIENTED_EDGE('',*,*,#306,.F.);
#391=ORIENTED_EDGE('',*,*,#304,.T.);
#392=ORIENTED_EDGE('',*,*,#307,.T.);
#393=ORIENTED_EDGE('',*,*,#308,.F.);
#394=ORIENTED_EDGE('',*,*,#307,.F.);
#395=ORIENTED_EDGE('',*,*,#309,.T.);
#396=ORIENTED_EDGE('',*,*,#310,.F.);
#397=ORIENTED_EDGE('',*,*,#311,.F.);
#398=ORIENTED_EDGE('',*,*,#312,.T.);
#399=ORIENTED_EDGE('',*,*,#309,.F.);
#400=ORIENTED_EDGE('',*,*,#312,.F.);
#401=ORIENTED_EDGE('',*,*,#310,.T.);
#402=ORIENTED_EDGE('',*,*,#313,.T.);
#403=ORIENTED_EDGE('',*,*,#314,.F.);
#404=ORIENTED_EDGE('',*,*,#313,.F.);
#405=ORIENTED_EDGE('',*,*,#315,.F.);
#406=ORIENTED_EDGE('',*,*,#316,.T.);
#407=ORIENTED_EDGE('',*,*,#317,.F.);
#408=ORIENTED_EDGE('',*,*,#316,.F.);
#409=ORIENTED_EDGE('',*,*,#318,.T.);
#410=ORIENTED_EDGE('',*,*,#319,.T.);
#411=ORIENTED_EDGE('',*,*,#320,.T.);
#412=ORIENTED_EDGE('',*,*,#321,.F.);
#413=ORIENTED_EDGE('',*,*,#317,.T.);
#414=ORIENTED_EDGE('',*,*,#322,.T.);
#415=ORIENTED_EDGE('',*,*,#323,.T.);
#416=ORIENTED_EDGE('',*,*,#324,.T.);
#417=ORIENTED_EDGE('',*,*,#319,.F.);
#418=ORIENTED_EDGE('',*,*,#325,.T.);
#419=ORIENTED_EDGE('',*,*,#326,.T.);
#420=ORIENTED_EDGE('',*,*,#327,.T.);
#421=ORIENTED_EDGE('',*,*,#323,.F.);
#422=ORIENTED_EDGE('',*,*,#315,.T.);
#423=ORIENTED_EDGE('',*,*,#328,.F.);
#424=ORIENTED_EDGE('',*,*,#329,.T.);
#425=ORIENTED_EDGE('',*,*,#330,.F.);
#426=ORIENTED_EDGE('',*,*,#329,.F.);
#427=ORIENTED_EDGE('',*,*,#331,.F.);
#428=ORIENTED_EDGE('',*,*,#332,.T.);
#429=ORIENTED_EDGE('',*,*,#333,.F.);
#430=ORIENTED_EDGE('',*,*,#334,.F.);
#431=ORIENTED_EDGE('',*,*,#330,.T.);
#432=ORIENTED_EDGE('',*,*,#335,.F.);
#433=ORIENTED_EDGE('',*,*,#334,.T.);
#434=ORIENTED_EDGE('',*,*,#336,.F.);
#435=ORIENTED_EDGE('',*,*,#337,.F.);
#436=ORIENTED_EDGE('',*,*,#338,.F.);
#437=ORIENTED_EDGE('',*,*,#337,.T.);
#438=ORIENTED_EDGE('',*,*,#339,.F.);
#439=ORIENTED_EDGE('',*,*,#340,.F.);
#440=ORIENTED_EDGE('',*,*,#328,.T.);
#441=ORIENTED_EDGE('',*,*,#341,.F.);
#442=ORIENTED_EDGE('',*,*,#340,.T.);
#443=ORIENTED_EDGE('',*,*,#342,.T.);
#444=ORIENTED_EDGE('',*,*,#326,.F.);
#445=ORIENTED_EDGE('',*,*,#343,.F.);
#446=ORIENTED_EDGE('',*,*,#321,.T.);
#447=ORIENTED_EDGE('',*,*,#344,.F.);
#448=ORIENTED_EDGE('',*,*,#332,.F.);
#449=ORIENTED_EDGE('',*,*,#343,.T.);
#450=ORIENTED_EDGE('',*,*,#331,.T.);
#451=ORIENTED_EDGE('',*,*,#335,.T.);
#452=ORIENTED_EDGE('',*,*,#338,.T.);
#453=ORIENTED_EDGE('',*,*,#341,.T.);
#454=ORIENTED_EDGE('',*,*,#325,.F.);
#455=ORIENTED_EDGE('',*,*,#322,.F.);
#456=ORIENTED_EDGE('',*,*,#318,.F.);
#457=ORIENTED_EDGE('',*,*,#281,.T.);
#458=ORIENTED_EDGE('',*,*,#287,.T.);
#459=ORIENTED_EDGE('',*,*,#293,.T.);
#460=ORIENTED_EDGE('',*,*,#299,.T.);
#461=ORIENTED_EDGE('',*,*,#305,.T.);
#462=ORIENTED_EDGE('',*,*,#311,.T.);
#463=ORIENTED_EDGE('',*,*,#344,.T.);
#464=ORIENTED_EDGE('',*,*,#320,.F.);
#465=ORIENTED_EDGE('',*,*,#324,.F.);
#466=ORIENTED_EDGE('',*,*,#327,.F.);
#467=ORIENTED_EDGE('',*,*,#342,.F.);
#468=ORIENTED_EDGE('',*,*,#339,.T.);
#469=ORIENTED_EDGE('',*,*,#336,.T.);
#470=ORIENTED_EDGE('',*,*,#333,.T.);
#471=ORIENTED_EDGE('',*,*,#284,.T.);
#472=ORIENTED_EDGE('',*,*,#290,.T.);
#473=ORIENTED_EDGE('',*,*,#296,.T.);
#474=ORIENTED_EDGE('',*,*,#302,.T.);
#475=ORIENTED_EDGE('',*,*,#308,.T.);
#476=ORIENTED_EDGE('',*,*,#314,.T.);
#477=PLANE('',#544);
#478=PLANE('',#551);
#479=PLANE('',#558);
#480=PLANE('',#565);
#481=PLANE('',#572);
#482=PLANE('',#579);
#483=PLANE('',#589);
#484=PLANE('',#590);
#485=PLANE('',#591);
#486=PLANE('',#595);
#487=PLANE('',#596);
#488=PLANE('',#597);
#489=PLANE('',#604);
#490=PLANE('',#605);
#491=ADVANCED_FACE('',(#121,#99),#477,.T.);
#492=ADVANCED_FACE('',(#122),#83,.F.);
#493=ADVANCED_FACE('',(#123),#84,.F.);
#494=ADVANCED_FACE('',(#124,#100),#478,.T.);
#495=ADVANCED_FACE('',(#125),#85,.F.);
#496=ADVANCED_FACE('',(#126),#86,.F.);
#497=ADVANCED_FACE('',(#127,#101),#479,.T.);
#498=ADVANCED_FACE('',(#128),#87,.F.);
#499=ADVANCED_FACE('',(#129),#88,.F.);
#500=ADVANCED_FACE('',(#130,#102),#480,.T.);
#501=ADVANCED_FACE('',(#131),#89,.F.);
#502=ADVANCED_FACE('',(#132),#90,.F.);
#503=ADVANCED_FACE('',(#133,#103),#481,.T.);
#504=ADVANCED_FACE('',(#134),#91,.F.);
#505=ADVANCED_FACE('',(#135),#92,.F.);
#506=ADVANCED_FACE('',(#136,#104),#482,.T.);
#507=ADVANCED_FACE('',(#137),#93,.F.);
#508=ADVANCED_FACE('',(#138),#94,.F.);
#509=ADVANCED_FACE('',(#139),#95,.F.);
#510=ADVANCED_FACE('',(#140,#105),#483,.F.);
#511=ADVANCED_FACE('',(#141),#484,.F.);
#512=ADVANCED_FACE('',(#142,#106),#485,.F.);
#513=ADVANCED_FACE('',(#143),#96,.F.);
#514=ADVANCED_FACE('',(#144,#107),#486,.T.);
#515=ADVANCED_FACE('',(#145),#487,.T.);
#516=ADVANCED_FACE('',(#146,#108),#488,.T.);
#517=ADVANCED_FACE('',(#147),#97,.T.);
#518=ADVANCED_FACE('',(#148),#98,.F.);
#519=ADVANCED_FACE('',(#149,#109,#110,#111,#112,#113,#114),#489,.T.);
#520=ADVANCED_FACE('',(#150,#115,#116,#117,#118,#119,#120),#490,.F.);
#521=CLOSED_SHELL('',(#491,#492,#493,#494,#495,#496,#497,#498,#499,#500,
#501,#502,#503,#504,#505,#506,#507,#508,#509,#510,#511,#512,#513,#514,#515,
#516,#517,#518,#519,#520));
#522=DERIVED_UNIT_ELEMENT(#525,1.);
#523=DERIVED_UNIT_ELEMENT(#912,-3.);
#524=DIMENSIONAL_EXPONENTS(0.,1.,0.,0.,0.,0.,0.);
#525=(
CONVERSION_BASED_UNIT('gram',#527)
MASS_UNIT()
NAMED_UNIT(#524)
);
#526=(
MASS_UNIT()
NAMED_UNIT(*)
SI_UNIT(.KILO.,.GRAM.)
);
#527=MASS_MEASURE_WITH_UNIT(MASS_MEASURE(0.001),#526);
#528=DERIVED_UNIT((#522,#523));
#529=MEASURE_REPRESENTATION_ITEM('density measure',
POSITIVE_RATIO_MEASURE(1.12),#528);
#530=PROPERTY_DEFINITION_REPRESENTATION(#535,#532);
#531=PROPERTY_DEFINITION_REPRESENTATION(#536,#533);
#532=REPRESENTATION('material name',(#534),#909);
#533=REPRESENTATION('density',(#529),#909);
#534=DESCRIPTIVE_REPRESENTATION_ITEM('Nylon 6','Nylon 6');
#535=PROPERTY_DEFINITION('material property','material name',#919);
#536=PROPERTY_DEFINITION('material property','density of part',#919);
#537=DATE_TIME_ROLE('creation_date');
#538=APPLIED_DATE_AND_TIME_ASSIGNMENT(#539,#537,(#919));
#539=DATE_AND_TIME(#540,#541);
#540=CALENDAR_DATE(2024,28,4);
#541=LOCAL_TIME(0,0,0.,#542);
#542=COORDINATED_UNIVERSAL_TIME_OFFSET(0,0,.BEHIND.);
#543=AXIS2_PLACEMENT_3D('',#766,#606,#607);
#544=AXIS2_PLACEMENT_3D('',#767,#608,#609);
#545=AXIS2_PLACEMENT_3D('',#769,#610,#611);
#546=AXIS2_PLACEMENT_3D('',#771,#612,#613);
#547=AXIS2_PLACEMENT_3D('',#772,#614,#615);
#548=AXIS2_PLACEMENT_3D('',#774,#616,#617);
#549=AXIS2_PLACEMENT_3D('',#776,#619,#620);
#550=AXIS2_PLACEMENT_3D('',#779,#622,#623);
#551=AXIS2_PLACEMENT_3D('',#780,#624,#625);
#552=AXIS2_PLACEMENT_3D('',#782,#626,#627);
#553=AXIS2_PLACEMENT_3D('',#784,#628,#629);
#554=AXIS2_PLACEMENT_3D('',#785,#630,#631);
#555=AXIS2_PLACEMENT_3D('',#787,#632,#633);
#556=AXIS2_PLACEMENT_3D('',#789,#635,#636);
#557=AXIS2_PLACEMENT_3D('',#792,#638,#639);
#558=AXIS2_PLACEMENT_3D('',#793,#640,#641);
#559=AXIS2_PLACEMENT_3D('',#795,#642,#643);
#560=AXIS2_PLACEMENT_3D('',#797,#644,#645);
#561=AXIS2_PLACEMENT_3D('',#798,#646,#647);
#562=AXIS2_PLACEMENT_3D('',#800,#648,#649);
#563=AXIS2_PLACEMENT_3D('',#802,#651,#652);
#564=AXIS2_PLACEMENT_3D('',#805,#654,#655);
#565=AXIS2_PLACEMENT_3D('',#806,#656,#657);
#566=AXIS2_PLACEMENT_3D('',#808,#658,#659);
#567=AXIS2_PLACEMENT_3D('',#810,#660,#661);
#568=AXIS2_PLACEMENT_3D('',#811,#662,#663);
#569=AXIS2_PLACEMENT_3D('',#813,#664,#665);
#570=AXIS2_PLACEMENT_3D('',#815,#667,#668);
#571=AXIS2_PLACEMENT_3D('',#818,#670,#671);
#572=AXIS2_PLACEMENT_3D('',#819,#672,#673);
#573=AXIS2_PLACEMENT_3D('',#821,#674,#675);
#574=AXIS2_PLACEMENT_3D('',#823,#676,#677);
#575=AXIS2_PLACEMENT_3D('',#824,#678,#679);
#576=AXIS2_PLACEMENT_3D('',#826,#680,#681);
#577=AXIS2_PLACEMENT_3D('',#828,#683,#684);
#578=AXIS2_PLACEMENT_3D('',#831,#686,#687);
#579=AXIS2_PLACEMENT_3D('',#832,#688,#689);
#580=AXIS2_PLACEMENT_3D('',#834,#690,#691);
#581=AXIS2_PLACEMENT_3D('',#836,#692,#693);
#582=AXIS2_PLACEMENT_3D('',#837,#694,#695);
#583=AXIS2_PLACEMENT_3D('',#839,#696,#697);
#584=AXIS2_PLACEMENT_3D('',#841,#699,#700);
#585=AXIS2_PLACEMENT_3D('',#844,#702,#703);
#586=AXIS2_PLACEMENT_3D('',#845,#704,#705);
#587=AXIS2_PLACEMENT_3D('',#847,#706,#707);
#588=AXIS2_PLACEMENT_3D('',#850,#709,#710);
#589=AXIS2_PLACEMENT_3D('',#851,#711,#712);
#590=AXIS2_PLACEMENT_3D('',#860,#717,#718);
#591=AXIS2_PLACEMENT_3D('',#866,#722,#723);
#592=AXIS2_PLACEMENT_3D('',#872,#727,#728);
#593=AXIS2_PLACEMENT_3D('',#874,#729,#730);
#594=AXIS2_PLACEMENT_3D('',#877,#732,#733);
#595=AXIS2_PLACEMENT_3D('',#878,#734,#735);
#596=AXIS2_PLACEMENT_3D('',#887,#740,#741);
#597=AXIS2_PLACEMENT_3D('',#893,#745,#746);
#598=AXIS2_PLACEMENT_3D('',#899,#750,#751);
#599=AXIS2_PLACEMENT_3D('',#900,#752,#753);
#600=AXIS2_PLACEMENT_3D('',#901,#754,#755);
#601=AXIS2_PLACEMENT_3D('',#902,#756,#757);
#602=AXIS2_PLACEMENT_3D('',#903,#758,#759);
#603=AXIS2_PLACEMENT_3D('',#904,#760,#761);
#604=AXIS2_PLACEMENT_3D('',#905,#762,#763);
#605=AXIS2_PLACEMENT_3D('',#906,#764,#765);
#606=DIRECTION('axis',(0.,0.,1.));
#607=DIRECTION('refdir',(1.,0.,0.));
#608=DIRECTION('center_axis',(0.,0.,1.));
#609=DIRECTION('ref_axis',(-0.939692620785908,0.342020143325669,0.));
#610=DIRECTION('center_axis',(0.,0.,1.));
#611=DIRECTION('ref_axis',(-0.939692620785908,0.342020143325669,0.));
#612=DIRECTION('center_axis',(0.,0.,1.));
#613=DIRECTION('ref_axis',(-0.939692620785908,0.342020143325669,0.));
#614=DIRECTION('center_axis',(0.,0.,1.));
#615=DIRECTION('ref_axis',(-0.939692620785908,0.342020143325669,0.));
#616=DIRECTION('center_axis',(0.,0.,-1.));
#617=DIRECTION('ref_axis',(-0.939692620785908,0.342020143325669,0.));
#618=DIRECTION('',(0.,0.,-1.));
#619=DIRECTION('center_axis',(0.,0.,1.));
#620=DIRECTION('ref_axis',(-0.939692620785908,0.342020143325669,0.));
#621=DIRECTION('',(0.,0.,-1.));
#622=DIRECTION('center_axis',(0.,0.,1.));
#623=DIRECTION('ref_axis',(-0.939692620785908,0.342020143325669,0.));
#624=DIRECTION('center_axis',(0.,0.,1.));
#625=DIRECTION('ref_axis',(-0.615661475325658,0.788010753606722,0.));
#626=DIRECTION('center_axis',(0.,0.,1.));
#627=DIRECTION('ref_axis',(-0.615661475325658,0.788010753606722,0.));
#628=DIRECTION('center_axis',(0.,0.,1.));
#629=DIRECTION('ref_axis',(-0.615661475325658,0.788010753606722,0.));
#630=DIRECTION('center_axis',(0.,0.,1.));
#631=DIRECTION('ref_axis',(-0.615661475325658,0.788010753606722,0.));
#632=DIRECTION('center_axis',(0.,0.,-1.));
#633=DIRECTION('ref_axis',(-0.615661475325658,0.788010753606722,0.));
#634=DIRECTION('',(0.,0.,-1.));
#635=DIRECTION('center_axis',(0.,0.,1.));
#636=DIRECTION('ref_axis',(-0.615661475325658,0.788010753606722,0.));
#637=DIRECTION('',(0.,0.,-1.));
#638=DIRECTION('center_axis',(0.,0.,1.));
#639=DIRECTION('ref_axis',(-0.615661475325658,0.788010753606722,0.));
#640=DIRECTION('center_axis',(0.,0.,1.));
#641=DIRECTION('ref_axis',(-0.104528463267654,0.994521895368273,0.));
#642=DIRECTION('center_axis',(0.,0.,1.));
#643=DIRECTION('ref_axis',(-0.104528463267654,0.994521895368273,0.));
#644=DIRECTION('center_axis',(0.,0.,1.));
#645=DIRECTION('ref_axis',(-0.104528463267654,0.994521895368273,0.));
#646=DIRECTION('center_axis',(0.,0.,1.));
#647=DIRECTION('ref_axis',(-0.104528463267654,0.994521895368273,0.));
#648=DIRECTION('center_axis',(0.,0.,-1.));
#649=DIRECTION('ref_axis',(-0.104528463267654,0.994521895368273,0.));
#650=DIRECTION('',(0.,0.,-1.));
#651=DIRECTION('center_axis',(0.,0.,1.));
#652=DIRECTION('ref_axis',(-0.104528463267654,0.994521895368273,0.));
#653=DIRECTION('',(0.,0.,-1.));
#654=DIRECTION('center_axis',(0.,0.,1.));
#655=DIRECTION('ref_axis',(-0.104528463267654,0.994521895368273,0.));
#656=DIRECTION('center_axis',(0.,0.,1.));
#657=DIRECTION('ref_axis',(0.438371146789077,0.898794046299167,0.));
#658=DIRECTION('center_axis',(0.,0.,1.));
#659=DIRECTION('ref_axis',(0.438371146789077,0.898794046299167,0.));
#660=DIRECTION('center_axis',(0.,0.,1.));
#661=DIRECTION('ref_axis',(0.438371146789077,0.898794046299167,0.));
#662=DIRECTION('center_axis',(0.,0.,1.));
#663=DIRECTION('ref_axis',(0.438371146789077,0.898794046299167,0.));
#664=DIRECTION('center_axis',(0.,0.,-1.));
#665=DIRECTION('ref_axis',(0.438371146789077,0.898794046299167,0.));
#666=DIRECTION('',(0.,0.,-1.));
#667=DIRECTION('center_axis',(0.,0.,1.));
#668=DIRECTION('ref_axis',(0.438371146789077,0.898794046299167,0.));
#669=DIRECTION('',(0.,0.,-1.));
#670=DIRECTION('center_axis',(0.,0.,1.));
#671=DIRECTION('ref_axis',(0.438371146789077,0.898794046299167,0.));
#672=DIRECTION('center_axis',(0.,0.,1.));
#673=DIRECTION('ref_axis',(0.848048096156426,0.529919264233205,0.));
#674=DIRECTION('center_axis',(0.,0.,1.));
#675=DIRECTION('ref_axis',(0.848048096156426,0.529919264233205,0.));
#676=DIRECTION('center_axis',(0.,0.,1.));
#677=DIRECTION('ref_axis',(0.848048096156426,0.529919264233205,0.));
#678=DIRECTION('center_axis',(0.,0.,1.));
#679=DIRECTION('ref_axis',(0.848048096156426,0.529919264233205,0.));
#680=DIRECTION('center_axis',(0.,0.,-1.));
#681=DIRECTION('ref_axis',(0.848048096156426,0.529919264233205,0.));
#682=DIRECTION('',(0.,0.,-1.));
#683=DIRECTION('center_axis',(0.,0.,1.));
#684=DIRECTION('ref_axis',(0.848048096156426,0.529919264233205,0.));
#685=DIRECTION('',(0.,0.,-1.));
#686=DIRECTION('center_axis',(0.,0.,1.));
#687=DIRECTION('ref_axis',(0.848048096156426,0.529919264233205,0.));
#688=DIRECTION('center_axis',(0.,0.,1.));
#689=DIRECTION('ref_axis',(1.,0.,0.));
#690=DIRECTION('center_axis',(0.,0.,1.));
#691=DIRECTION('ref_axis',(1.,0.,0.));
#692=DIRECTION('center_axis',(0.,0.,1.));
#693=DIRECTION('ref_axis',(1.,0.,0.));
#694=DIRECTION('center_axis',(0.,0.,1.));
#695=DIRECTION('ref_axis',(1.,0.,0.));
#696=DIRECTION('center_axis',(0.,0.,-1.));
#697=DIRECTION('ref_axis',(1.,0.,0.));
#698=DIRECTION('',(0.,0.,-1.));
#699=DIRECTION('center_axis',(0.,0.,1.));
#700=DIRECTION('ref_axis',(1.,0.,0.));
#701=DIRECTION('',(0.,0.,-1.));
#702=DIRECTION('center_axis',(0.,0.,1.));
#703=DIRECTION('ref_axis',(1.,0.,0.));
#704=DIRECTION('center_axis',(0.,-1.,0.));
#705=DIRECTION('ref_axis',(-1.,0.,0.));
#706=DIRECTION('center_axis',(0.,1.,0.));
#707=DIRECTION('ref_axis',(-1.,0.,0.));
#708=DIRECTION('',(0.,1.,0.));
#709=DIRECTION('center_axis',(0.,-1.,0.));
#710=DIRECTION('ref_axis',(-1.,0.,0.));
#711=DIRECTION('center_axis',(0.,-1.,0.));
#712=DIRECTION('ref_axis',(-1.,0.,0.));
#713=DIRECTION('',(1.,0.,0.));
#714=DIRECTION('',(0.,0.,-1.));
#715=DIRECTION('',(-1.,0.,0.));
#716=DIRECTION('',(0.,0.,-1.));
#717=DIRECTION('center_axis',(-1.,0.,0.));
#718=DIRECTION('ref_axis',(0.,1.,0.));
#719=DIRECTION('',(0.,-1.,0.));
#720=DIRECTION('',(0.,0.,-1.));
#721=DIRECTION('',(0.,1.,0.));
#722=DIRECTION('center_axis',(0.,1.,0.));
#723=DIRECTION('ref_axis',(1.,0.,0.));
#724=DIRECTION('',(-1.,0.,0.));
#725=DIRECTION('',(0.,0.,-1.));
#726=DIRECTION('',(1.,0.,0.));
#727=DIRECTION('center_axis',(0.,1.,0.));
#728=DIRECTION('ref_axis',(1.,0.,0.));
#729=DIRECTION('center_axis',(0.,1.,0.));
#730=DIRECTION('ref_axis',(1.,0.,0.));
#731=DIRECTION('',(0.,1.,0.));
#732=DIRECTION('center_axis',(0.,-1.,0.));
#733=DIRECTION('ref_axis',(1.,0.,0.));
#734=DIRECTION('center_axis',(0.,1.,0.));
#735=DIRECTION('ref_axis',(1.,0.,0.));
#736=DIRECTION('',(-1.,0.,0.));
#737=DIRECTION('',(0.,0.,-1.));
#738=DIRECTION('',(1.,0.,0.));
#739=DIRECTION('',(0.,0.,-1.));
#740=DIRECTION('center_axis',(-1.,0.,0.));
#741=DIRECTION('ref_axis',(0.,1.,0.));
#742=DIRECTION('',(0.,-1.,0.));
#743=DIRECTION('',(0.,1.,0.));
#744=DIRECTION('',(0.,0.,-1.));
#745=DIRECTION('center_axis',(0.,-1.,0.));
#746=DIRECTION('ref_axis',(-1.,0.,0.));
#747=DIRECTION('',(1.,0.,0.));
#748=DIRECTION('',(-1.,0.,0.));
#749=DIRECTION('',(0.,0.,-1.));
#750=DIRECTION('center_axis',(0.,0.,-1.));
#751=DIRECTION('ref_axis',(1.,0.,0.));
#752=DIRECTION('center_axis',(0.,0.,1.));
#753=DIRECTION('ref_axis',(1.,0.,0.));
#754=DIRECTION('center_axis',(0.,0.,1.));
#755=DIRECTION('ref_axis',(-1.,0.,0.));
#756=DIRECTION('center_axis',(0.,0.,-1.));
#757=DIRECTION('ref_axis',(-1.,0.,0.));
#758=DIRECTION('center_axis',(0.,0.,-1.));
#759=DIRECTION('ref_axis',(-1.,0.,0.));
#760=DIRECTION('center_axis',(0.,0.,1.));
#761=DIRECTION('ref_axis',(-1.,0.,0.));
#762=DIRECTION('center_axis',(0.,0.,1.));
#763=DIRECTION('ref_axis',(1.,0.,0.));
#764=DIRECTION('center_axis',(0.,0.,1.));
#765=DIRECTION('ref_axis',(1.,0.,0.));
#766=CARTESIAN_POINT('',(0.,0.,0.));
#767=CARTESIAN_POINT('Origin',(147.721162951831,-26.0472266500396,-12.));
#768=CARTESIAN_POINT('',(157.11808915969,-29.4674280832962,-12.));
#769=CARTESIAN_POINT('Origin',(147.721162951831,-26.0472266500396,-12.));
#770=CARTESIAN_POINT('',(152.889472366154,-27.9283374383307,-12.));
#771=CARTESIAN_POINT('Origin',(147.721162951831,-26.0472266500396,-12.));
#772=CARTESIAN_POINT('Origin',(147.721162951831,-26.0472266500396,-6.));
#773=CARTESIAN_POINT('',(157.11808915969,-29.4674280832962,0.));
#774=CARTESIAN_POINT('Origin',(147.721162951831,-26.0472266500396,0.));
#775=CARTESIAN_POINT('',(157.11808915969,-29.4674280832962,-6.));
#776=CARTESIAN_POINT('Origin',(147.721162951831,-26.0472266500396,-435.182720245186));
#777=CARTESIAN_POINT('',(152.889472366154,-27.9283374383307,-22.));
#778=CARTESIAN_POINT('',(152.889472366154,-27.9283374383307,-435.182720245186));
#779=CARTESIAN_POINT('Origin',(147.721162951831,-26.0472266500396,-22.));
#780=CARTESIAN_POINT('Origin',(111.471723821609,-100.369590953829,-12.));
#781=CARTESIAN_POINT('',(117.628338574866,-108.249698489896,-12.));
#782=CARTESIAN_POINT('Origin',(111.471723821609,-100.369590953829,-12.));
#783=CARTESIAN_POINT('',(114.8578619359,-104.703650098666,-12.));
#784=CARTESIAN_POINT('Origin',(111.471723821609,-100.369590953829,-12.));
#785=CARTESIAN_POINT('Origin',(111.471723821609,-100.369590953829,-6.));
#786=CARTESIAN_POINT('',(117.628338574866,-108.249698489896,0.));
#787=CARTESIAN_POINT('Origin',(111.471723821609,-100.369590953829,0.));
#788=CARTESIAN_POINT('',(117.628338574866,-108.249698489896,-6.));
#789=CARTESIAN_POINT('Origin',(111.471723821609,-100.369590953829,-435.182720245186));
#790=CARTESIAN_POINT('',(114.8578619359,-104.703650098666,-22.));
#791=CARTESIAN_POINT('',(114.8578619359,-104.703650098666,-435.182720245186));
#792=CARTESIAN_POINT('Origin',(111.471723821609,-100.369590953829,-22.));
#793=CARTESIAN_POINT('Origin',(41.3456033725499,-144.189254390748,-12.));
#794=CARTESIAN_POINT('',(42.3908880052265,-154.134473344431,-12.));
#795=CARTESIAN_POINT('Origin',(41.3456033725499,-144.189254390748,-12.));
#796=CARTESIAN_POINT('',(41.920509920522,-149.659124815273,-12.));
#797=CARTESIAN_POINT('Origin',(41.3456033725499,-144.189254390748,-12.));
#798=CARTESIAN_POINT('Origin',(41.3456033725499,-144.189254390748,-6.));
#799=CARTESIAN_POINT('',(42.3908880052265,-154.134473344431,0.));
#800=CARTESIAN_POINT('Origin',(41.3456033725499,-144.189254390748,0.));
#801=CARTESIAN_POINT('',(42.3908880052265,-154.134473344431,-6.));
#802=CARTESIAN_POINT('Origin',(41.3456033725499,-144.189254390748,-435.182720245186));
#803=CARTESIAN_POINT('',(41.920509920522,-149.659124815273,-22.));
#804=CARTESIAN_POINT('',(41.920509920522,-149.659124815273,-435.182720245186));
#805=CARTESIAN_POINT('Origin',(41.3456033725499,-144.189254390748,-22.));
#806=CARTESIAN_POINT('Origin',(-41.3456033725499,-144.189254390748,-12.));
#807=CARTESIAN_POINT('',(-45.7293148404406,-153.17719485374,-12.));
#808=CARTESIAN_POINT('Origin',(-41.3456033725499,-144.189254390748,-12.));
#809=CARTESIAN_POINT('',(-43.7566446798898,-149.132621645393,-12.));
#810=CARTESIAN_POINT('Origin',(-41.3456033725499,-144.189254390748,-12.));
#811=CARTESIAN_POINT('Origin',(-41.3456033725499,-144.189254390748,-6.));
#812=CARTESIAN_POINT('',(-45.7293148404406,-153.17719485374,0.));
#813=CARTESIAN_POINT('Origin',(-41.3456033725499,-144.189254390748,0.));
#814=CARTESIAN_POINT('',(-45.7293148404406,-153.17719485374,-6.));
#815=CARTESIAN_POINT('Origin',(-41.3456033725499,-144.189254390748,-435.182720245186));
#816=CARTESIAN_POINT('',(-43.7566446798898,-149.132621645393,-22.));
#817=CARTESIAN_POINT('',(-43.7566446798898,-149.132621645393,-435.182720245186));
#818=CARTESIAN_POINT('Origin',(-41.3456033725499,-144.189254390748,-22.));
#819=CARTESIAN_POINT('Origin',(-111.471723821609,-100.369590953829,-12.));
#820=CARTESIAN_POINT('',(-119.952204783173,-105.668783596161,-12.));
#821=CARTESIAN_POINT('Origin',(-111.471723821609,-100.369590953829,-12.));
#822=CARTESIAN_POINT('',(-116.135988350469,-103.284146907111,-12.));
#823=CARTESIAN_POINT('Origin',(-111.471723821609,-100.369590953829,-12.));
#824=CARTESIAN_POINT('Origin',(-111.471723821609,-100.369590953829,-6.));
#825=CARTESIAN_POINT('',(-119.952204783173,-105.668783596161,0.));
#826=CARTESIAN_POINT('Origin',(-111.471723821609,-100.369590953829,0.));
#827=CARTESIAN_POINT('',(-119.952204783173,-105.668783596161,-6.));
#828=CARTESIAN_POINT('Origin',(-111.471723821609,-100.369590953829,-435.182720245186));
#829=CARTESIAN_POINT('',(-116.135988350469,-103.284146907111,-22.));
#830=CARTESIAN_POINT('',(-116.135988350469,-103.284146907111,-435.182720245186));
#831=CARTESIAN_POINT('Origin',(-111.471723821609,-100.369590953829,-22.));
#832=CARTESIAN_POINT('Origin',(-147.721162951831,-26.0472266500396,-12.));
#833=CARTESIAN_POINT('',(-157.721162951831,-26.0472266500396,-12.));
#834=CARTESIAN_POINT('Origin',(-147.721162951831,-26.0472266500396,-12.));
#835=CARTESIAN_POINT('',(-153.221162951831,-26.0472266500396,-12.));
#836=CARTESIAN_POINT('Origin',(-147.721162951831,-26.0472266500396,-12.));
#837=CARTESIAN_POINT('Origin',(-147.721162951831,-26.0472266500396,-6.));
#838=CARTESIAN_POINT('',(-157.721162951831,-26.0472266500396,0.));
#839=CARTESIAN_POINT('Origin',(-147.721162951831,-26.0472266500396,0.));
#840=CARTESIAN_POINT('',(-157.721162951831,-26.0472266500396,-6.));
#841=CARTESIAN_POINT('Origin',(-147.721162951831,-26.0472266500396,-435.182720245186));
#842=CARTESIAN_POINT('',(-153.221162951831,-26.0472266500396,-22.));
#843=CARTESIAN_POINT('',(-153.221162951831,-26.0472266500396,-435.182720245186));
#844=CARTESIAN_POINT('Origin',(-147.721162951831,-26.0472266500396,-22.));
#845=CARTESIAN_POINT('Origin',(183.666002653408,-30.,-11.));
#846=CARTESIAN_POINT('',(189.166002653408,-30.,-11.));
#847=CARTESIAN_POINT('Origin',(183.666002653408,-30.,-11.));
#848=CARTESIAN_POINT('',(189.166002653408,0.,-11.));
#849=CARTESIAN_POINT('',(189.166002653408,-30.,-11.));
#850=CARTESIAN_POINT('Origin',(183.666002653408,0.,-11.));
#851=CARTESIAN_POINT('Origin',(200.,0.,0.));
#852=CARTESIAN_POINT('',(130.,0.,0.));
#853=CARTESIAN_POINT('',(200.,7.88860905221012E-29,0.));
#854=CARTESIAN_POINT('',(130.,0.,0.));
#855=CARTESIAN_POINT('',(200.,0.,-22.));
#856=CARTESIAN_POINT('',(200.,7.88860905221012E-29,0.));
#857=CARTESIAN_POINT('',(130.,0.,-22.));
#858=CARTESIAN_POINT('',(130.,0.,-22.));
#859=CARTESIAN_POINT('',(130.,0.,0.));
#860=CARTESIAN_POINT('Origin',(200.,-30.,0.));
#861=CARTESIAN_POINT('',(200.,-30.,0.));
#862=CARTESIAN_POINT('',(200.,7.88860905221012E-29,0.));
#863=CARTESIAN_POINT('',(200.,-30.,-22.));
#864=CARTESIAN_POINT('',(200.,-30.,0.));
#865=CARTESIAN_POINT('',(200.,7.88860905221012E-29,-22.));
#866=CARTESIAN_POINT('Origin',(167.332005306815,-30.,0.));
#867=CARTESIAN_POINT('',(167.332005306815,-30.,0.));
#868=CARTESIAN_POINT('',(200.,-30.,0.));
#869=CARTESIAN_POINT('',(167.332005306815,-30.,-22.));
#870=CARTESIAN_POINT('',(167.332005306815,-30.,0.));
#871=CARTESIAN_POINT('',(200.,-30.,-22.));
#872=CARTESIAN_POINT('Origin',(-183.666002653408,-30.,-11.));
#873=CARTESIAN_POINT('',(-189.166002653408,-30.,-11.));
#874=CARTESIAN_POINT('Origin',(-183.666002653408,-30.,-11.));
#875=CARTESIAN_POINT('',(-189.166002653408,0.,-11.));
#876=CARTESIAN_POINT('',(-189.166002653408,-30.,-11.));
#877=CARTESIAN_POINT('Origin',(-183.666002653408,0.,-11.));
#878=CARTESIAN_POINT('Origin',(-200.,0.,0.));
#879=CARTESIAN_POINT('',(-130.,0.,0.));
#880=CARTESIAN_POINT('',(-200.,7.88860905221012E-29,0.));
#881=CARTESIAN_POINT('',(-130.,0.,0.));
#882=CARTESIAN_POINT('',(-130.,0.,-22.));
#883=CARTESIAN_POINT('',(-130.,0.,0.));
#884=CARTESIAN_POINT('',(-200.,0.,-22.));
#885=CARTESIAN_POINT('',(-130.,0.,-22.));
#886=CARTESIAN_POINT('',(-200.,7.88860905221012E-29,0.));
#887=CARTESIAN_POINT('Origin',(-200.,-30.,0.));
#888=CARTESIAN_POINT('',(-200.,-30.,0.));
#889=CARTESIAN_POINT('',(-200.,7.88860905221012E-29,0.));
#890=CARTESIAN_POINT('',(-200.,-30.,-22.));
#891=CARTESIAN_POINT('',(-200.,7.88860905221012E-29,-22.));
#892=CARTESIAN_POINT('',(-200.,-30.,0.));
#893=CARTESIAN_POINT('Origin',(-167.332005306815,-30.,0.));
#894=CARTESIAN_POINT('',(-167.332005306815,-30.,0.));
#895=CARTESIAN_POINT('',(-200.,-30.,0.));
#896=CARTESIAN_POINT('',(-167.332005306815,-30.,-22.));
#897=CARTESIAN_POINT('',(-200.,-30.,-22.));
#898=CARTESIAN_POINT('',(-167.332005306815,-30.,0.));
#899=CARTESIAN_POINT('Origin',(0.,0.,0.));
#900=CARTESIAN_POINT('Origin',(0.,0.,0.));
#901=CARTESIAN_POINT('Origin',(0.,0.,-22.));
#902=CARTESIAN_POINT('Origin',(0.,0.,0.));
#903=CARTESIAN_POINT('Origin',(0.,0.,0.));
#904=CARTESIAN_POINT('Origin',(0.,0.,-22.));
#905=CARTESIAN_POINT('Origin',(-100.,-85.,0.));
#906=CARTESIAN_POINT('Origin',(-100.,-85.,-22.));
#907=UNCERTAINTY_MEASURE_WITH_UNIT(LENGTH_MEASURE(0.01),#911,
'DISTANCE_ACCURACY_VALUE',
'Maximum model space distance between geometric entities at asserted c
onnectivities');
#908=UNCERTAINTY_MEASURE_WITH_UNIT(LENGTH_MEASURE(0.01),#911,
'DISTANCE_ACCURACY_VALUE',
'Maximum model space distance between geometric entities at asserted c
onnectivities');
#909=(
GEOMETRIC_REPRESENTATION_CONTEXT(3)
GLOBAL_UNCERTAINTY_ASSIGNED_CONTEXT((#907))
GLOBAL_UNIT_ASSIGNED_CONTEXT((#911,#913,#914))
REPRESENTATION_CONTEXT('','3D')
);
#910=(
GEOMETRIC_REPRESENTATION_CONTEXT(3)
GLOBAL_UNCERTAINTY_ASSIGNED_CONTEXT((#908))
GLOBAL_UNIT_ASSIGNED_CONTEXT((#911,#913,#914))
REPRESENTATION_CONTEXT('','3D')
);
#911=(
LENGTH_UNIT()
NAMED_UNIT(*)
SI_UNIT(.MILLI.,.METRE.)
);
#912=(
LENGTH_UNIT()
NAMED_UNIT(*)
SI_UNIT(.CENTI.,.METRE.)
);
#913=(
NAMED_UNIT(*)
PLANE_ANGLE_UNIT()
SI_UNIT($,.RADIAN.)
);
#914=(
NAMED_UNIT(*)
SI_UNIT($,.STERADIAN.)
SOLID_ANGLE_UNIT()
);
#915=SHAPE_DEFINITION_REPRESENTATION(#916,#917);
#916=PRODUCT_DEFINITION_SHAPE('',$,#919);
#917=SHAPE_REPRESENTATION('',(#543),#909);
#918=PRODUCT_DEFINITION_CONTEXT('part definition',#923,'design');
#919=PRODUCT_DEFINITION('\X2\0414041C0424\X0\ 093 \X2\041F043E044104420435043B044C\X0\ 
\X2\041A041E0420041C0410\X0\ v2.0',
'\X2\0414041C0424\X0\ 093 \X2\041F043E044104420435043B044C\X0\ \X2\041A041E0420041C0410\X0\ 
v2.0',#920,#918);
#920=PRODUCT_DEFINITION_FORMATION('',$,#925);
#921=PRODUCT_RELATED_PRODUCT_CATEGORY(
'\X2\0414041C0424\X0\ 093 \X2\041F043E044104420435043B044C\X0\ \X2\041A041E0420041C0410\X0\ 
v2.0','\X2\0414041C0424\X0\ 093 \X2\041F043E044104420435043B044C\X0\ \X2\041A041E0420041C0410\X0\ 
v2.0',(#925));
#922=APPLICATION_PROTOCOL_DEFINITION('international standard',
'automotive_design',2009,#923);
#923=APPLICATION_CONTEXT(
'Core Data for Automotive Mechanical Design Process');
#924=PRODUCT_CONTEXT('part definition',#923,'mechanical');
#925=PRODUCT('\X2\0414041C0424\X0\ 093 \X2\041F043E044104420435043B044C\X0\ 
\X2\041A041E0420041C0410\X0\ v2.0',
'\X2\0414041C0424\X0\ 093 \X2\041F043E044104420435043B044C\X0\ \X2\041A041E0420041C0410\X0\ 
v2.0',$,(#924));
#926=PRESENTATION_STYLE_ASSIGNMENT((#927));
#927=SURFACE_STYLE_USAGE(.BOTH.,#930);
#928=SURFACE_STYLE_RENDERING_WITH_PROPERTIES($,#934,(#929));
#929=SURFACE_STYLE_TRANSPARENT(0.);
#930=SURFACE_SIDE_STYLE('',(#931,#928));
#931=SURFACE_STYLE_FILL_AREA(#932);
#932=FILL_AREA_STYLE('',(#933));
#933=FILL_AREA_STYLE_COLOUR('',#934);
#934=COLOUR_RGB('',0.749019607843137,0.749019607843137,0.749019607843137);
ENDSEC;
END-ISO-10303-21;
