ISO-10303-21;
HEADER;
/* Generated by software containing ST-Developer
 * from STEP Tools, Inc. (www.steptools.com) 
 */

FILE_DESCRIPTION(
/* description */ (''),
/* implementation_level */ '2;1');

FILE_NAME(
/* name */ 'DMF 2133 Drum stern ring 1of8 .stp',
/* time_stamp */ '2026-06-07T21:16:29+03:00',
/* author */ ('admin'),
/* organization */ (''),
/* preprocessor_version */ 'ST-DEVELOPER v20.1',
/* originating_system */ 'Autodesk Inventor 2026',
/* authorisation */ '');

FILE_SCHEMA (('AUTOMOTIVE_DESIGN { 1 0 10303 214 3 1 1 }'));
ENDSEC;

DATA;
#10=MECHANICAL_DESIGN_GEOMETRIC_PRESENTATION_REPRESENTATION('',(#13),#348);
#11=SHAPE_REPRESENTATION_RELATIONSHIP('SRR','None',#355,#12);
#12=ADVANCED_BREP_SHAPE_REPRESENTATION('',(#14),#347);
#13=STYLED_ITEM('',(#364),#14);
#14=MANIFOLD_SOLID_BREP('Solid2',#191);
#15=CYLINDRICAL_SURFACE('',#220,204.);
#16=CYLINDRICAL_SURFACE('',#227,10.);
#17=CYLINDRICAL_SURFACE('',#228,5.5);
#18=CYLINDRICAL_SURFACE('',#230,170.);
#19=CYLINDRICAL_SURFACE('',#234,209.);
#20=FACE_BOUND('',#47,.T.);
#21=FACE_BOUND('',#51,.T.);
#22=FACE_BOUND('',#56,.T.);
#23=CIRCLE('',#217,204.);
#24=CIRCLE('',#218,170.);
#25=CIRCLE('',#219,10.);
#26=CIRCLE('',#221,204.);
#27=CIRCLE('',#223,209.);
#28=CIRCLE('',#225,10.);
#29=CIRCLE('',#226,5.5);
#30=CIRCLE('',#229,5.5);
#31=CIRCLE('',#231,170.);
#32=CIRCLE('',#233,209.);
#33=FACE_OUTER_BOUND('',#44,.T.);
#34=FACE_OUTER_BOUND('',#45,.T.);
#35=FACE_OUTER_BOUND('',#46,.T.);
#36=FACE_OUTER_BOUND('',#48,.T.);
#37=FACE_OUTER_BOUND('',#49,.T.);
#38=FACE_OUTER_BOUND('',#50,.T.);
#39=FACE_OUTER_BOUND('',#52,.T.);
#40=FACE_OUTER_BOUND('',#53,.T.);
#41=FACE_OUTER_BOUND('',#54,.T.);
#42=FACE_OUTER_BOUND('',#55,.T.);
#43=FACE_OUTER_BOUND('',#57,.T.);
#44=EDGE_LOOP('',(#126,#127,#128,#129,#130,#131));
#45=EDGE_LOOP('',(#132,#133,#134,#135,#136,#137));
#46=EDGE_LOOP('',(#138,#139,#140,#141));
#47=EDGE_LOOP('',(#142));
#48=EDGE_LOOP('',(#143,#144,#145,#146));
#49=EDGE_LOOP('',(#147,#148,#149,#150));
#50=EDGE_LOOP('',(#151));
#51=EDGE_LOOP('',(#152));
#52=EDGE_LOOP('',(#153,#154,#155,#156));
#53=EDGE_LOOP('',(#157,#158,#159,#160));
#54=EDGE_LOOP('',(#161,#162,#163,#164));
#55=EDGE_LOOP('',(#165,#166,#167,#168));
#56=EDGE_LOOP('',(#169));
#57=EDGE_LOOP('',(#170,#171,#172,#173));
#58=LINE('',#297,#72);
#59=LINE('',#299,#73);
#60=LINE('',#301,#74);
#61=LINE('',#303,#75);
#62=LINE('',#305,#76);
#63=LINE('',#306,#77);
#64=LINE('',#310,#78);
#65=LINE('',#312,#79);
#66=LINE('',#314,#80);
#67=LINE('',#316,#81);
#68=LINE('',#318,#82);
#69=LINE('',#319,#83);
#70=LINE('',#335,#84);
#71=LINE('',#338,#85);
#72=VECTOR('',#239,10.);
#73=VECTOR('',#240,10.);
#74=VECTOR('',#241,10.);
#75=VECTOR('',#242,10.);
#76=VECTOR('',#243,10.);
#77=VECTOR('',#244,10.);
#78=VECTOR('',#247,10.);
#79=VECTOR('',#248,10.);
#80=VECTOR('',#249,10.);
#81=VECTOR('',#250,10.);
#82=VECTOR('',#251,10.);
#83=VECTOR('',#252,10.);
#84=VECTOR('',#277,10.);
#85=VECTOR('',#280,5.5);
#86=VERTEX_POINT('',#295);
#87=VERTEX_POINT('',#296);
#88=VERTEX_POINT('',#298);
#89=VERTEX_POINT('',#300);
#90=VERTEX_POINT('',#302);
#91=VERTEX_POINT('',#304);
#92=VERTEX_POINT('',#308);
#93=VERTEX_POINT('',#309);
#94=VERTEX_POINT('',#311);
#95=VERTEX_POINT('',#313);
#96=VERTEX_POINT('',#315);
#97=VERTEX_POINT('',#317);
#98=VERTEX_POINT('',#323);
#99=VERTEX_POINT('',#330);
#100=VERTEX_POINT('',#332);
#101=VERTEX_POINT('',#337);
#102=EDGE_CURVE('',#86,#87,#58,.T.);
#103=EDGE_CURVE('',#88,#86,#59,.T.);
#104=EDGE_CURVE('',#89,#88,#60,.T.);
#105=EDGE_CURVE('',#90,#89,#61,.T.);
#106=EDGE_CURVE('',#91,#90,#62,.T.);
#107=EDGE_CURVE('',#87,#91,#63,.T.);
#108=EDGE_CURVE('',#92,#93,#64,.T.);
#109=EDGE_CURVE('',#94,#92,#65,.T.);
#110=EDGE_CURVE('',#95,#94,#66,.T.);
#111=EDGE_CURVE('',#96,#95,#67,.T.);
#112=EDGE_CURVE('',#97,#96,#68,.T.);
#113=EDGE_CURVE('',#93,#97,#69,.T.);
#114=EDGE_CURVE('',#87,#92,#23,.T.);
#115=EDGE_CURVE('',#86,#93,#24,.T.);
#116=EDGE_CURVE('',#98,#98,#25,.T.);
#117=EDGE_CURVE('',#91,#94,#26,.T.);
#118=EDGE_CURVE('',#90,#95,#27,.T.);
#119=EDGE_CURVE('',#99,#99,#28,.T.);
#120=EDGE_CURVE('',#100,#100,#29,.T.);
#121=EDGE_CURVE('',#98,#99,#70,.T.);
#122=EDGE_CURVE('',#100,#101,#71,.T.);
#123=EDGE_CURVE('',#101,#101,#30,.T.);
#124=EDGE_CURVE('',#88,#97,#31,.T.);
#125=EDGE_CURVE('',#89,#96,#32,.T.);
#126=ORIENTED_EDGE('',*,*,#102,.F.);
#127=ORIENTED_EDGE('',*,*,#103,.F.);
#128=ORIENTED_EDGE('',*,*,#104,.F.);
#129=ORIENTED_EDGE('',*,*,#105,.F.);
#130=ORIENTED_EDGE('',*,*,#106,.F.);
#131=ORIENTED_EDGE('',*,*,#107,.F.);
#132=ORIENTED_EDGE('',*,*,#108,.F.);
#133=ORIENTED_EDGE('',*,*,#109,.F.);
#134=ORIENTED_EDGE('',*,*,#110,.F.);
#135=ORIENTED_EDGE('',*,*,#111,.F.);
#136=ORIENTED_EDGE('',*,*,#112,.F.);
#137=ORIENTED_EDGE('',*,*,#113,.F.);
#138=ORIENTED_EDGE('',*,*,#102,.T.);
#139=ORIENTED_EDGE('',*,*,#114,.T.);
#140=ORIENTED_EDGE('',*,*,#108,.T.);
#141=ORIENTED_EDGE('',*,*,#115,.F.);
#142=ORIENTED_EDGE('',*,*,#116,.T.);
#143=ORIENTED_EDGE('',*,*,#107,.T.);
#144=ORIENTED_EDGE('',*,*,#117,.T.);
#145=ORIENTED_EDGE('',*,*,#109,.T.);
#146=ORIENTED_EDGE('',*,*,#114,.F.);
#147=ORIENTED_EDGE('',*,*,#106,.T.);
#148=ORIENTED_EDGE('',*,*,#118,.T.);
#149=ORIENTED_EDGE('',*,*,#110,.T.);
#150=ORIENTED_EDGE('',*,*,#117,.F.);
#151=ORIENTED_EDGE('',*,*,#119,.T.);
#152=ORIENTED_EDGE('',*,*,#120,.F.);
#153=ORIENTED_EDGE('',*,*,#116,.F.);
#154=ORIENTED_EDGE('',*,*,#121,.T.);
#155=ORIENTED_EDGE('',*,*,#119,.F.);
#156=ORIENTED_EDGE('',*,*,#121,.F.);
#157=ORIENTED_EDGE('',*,*,#120,.T.);
#158=ORIENTED_EDGE('',*,*,#122,.T.);
#159=ORIENTED_EDGE('',*,*,#123,.F.);
#160=ORIENTED_EDGE('',*,*,#122,.F.);
#161=ORIENTED_EDGE('',*,*,#103,.T.);
#162=ORIENTED_EDGE('',*,*,#115,.T.);
#163=ORIENTED_EDGE('',*,*,#113,.T.);
#164=ORIENTED_EDGE('',*,*,#124,.F.);
#165=ORIENTED_EDGE('',*,*,#104,.T.);
#166=ORIENTED_EDGE('',*,*,#124,.T.);
#167=ORIENTED_EDGE('',*,*,#112,.T.);
#168=ORIENTED_EDGE('',*,*,#125,.F.);
#169=ORIENTED_EDGE('',*,*,#123,.T.);
#170=ORIENTED_EDGE('',*,*,#105,.T.);
#171=ORIENTED_EDGE('',*,*,#125,.T.);
#172=ORIENTED_EDGE('',*,*,#111,.T.);
#173=ORIENTED_EDGE('',*,*,#118,.F.);
#174=PLANE('',#214);
#175=PLANE('',#215);
#176=PLANE('',#216);
#177=PLANE('',#222);
#178=PLANE('',#224);
#179=PLANE('',#232);
#180=ADVANCED_FACE('',(#33),#174,.F.);
#181=ADVANCED_FACE('',(#34),#175,.F.);
#182=ADVANCED_FACE('',(#35,#20),#176,.T.);
#183=ADVANCED_FACE('',(#36),#15,.T.);
#184=ADVANCED_FACE('',(#37),#177,.T.);
#185=ADVANCED_FACE('',(#38,#21),#178,.T.);
#186=ADVANCED_FACE('',(#39),#16,.F.);
#187=ADVANCED_FACE('',(#40),#17,.F.);
#188=ADVANCED_FACE('',(#41),#18,.F.);
#189=ADVANCED_FACE('',(#42,#22),#179,.T.);
#190=ADVANCED_FACE('',(#43),#19,.T.);
#191=CLOSED_SHELL('',(#180,#181,#182,#183,#184,#185,#186,#187,#188,#189,
#190));
#192=DERIVED_UNIT_ELEMENT(#195,1.);
#193=DERIVED_UNIT_ELEMENT(#350,-3.);
#194=DIMENSIONAL_EXPONENTS(0.,1.,0.,0.,0.,0.,0.);
#195=(
CONVERSION_BASED_UNIT('gram',#197)
MASS_UNIT()
NAMED_UNIT(#194)
);
#196=(
MASS_UNIT()
NAMED_UNIT(*)
SI_UNIT(.KILO.,.GRAM.)
);
#197=MASS_MEASURE_WITH_UNIT(MASS_MEASURE(0.001),#196);
#198=DERIVED_UNIT((#192,#193));
#199=MEASURE_REPRESENTATION_ITEM('density measure',
POSITIVE_RATIO_MEASURE(1.),#198);
#200=PROPERTY_DEFINITION_REPRESENTATION(#205,#202);
#201=PROPERTY_DEFINITION_REPRESENTATION(#206,#203);
#202=REPRESENTATION('material name',(#204),#347);
#203=REPRESENTATION('density',(#199),#347);
#204=DESCRIPTIVE_REPRESENTATION_ITEM('Generic','Generic');
#205=PROPERTY_DEFINITION('material property','material name',#357);
#206=PROPERTY_DEFINITION('material property','density of part',#357);
#207=DATE_TIME_ROLE('creation_date');
#208=APPLIED_DATE_AND_TIME_ASSIGNMENT(#209,#207,(#357));
#209=DATE_AND_TIME(#210,#211);
#210=CALENDAR_DATE(2024,28,4);
#211=LOCAL_TIME(0,0,0.,#212);
#212=COORDINATED_UNIVERSAL_TIME_OFFSET(0,0,.BEHIND.);
#213=AXIS2_PLACEMENT_3D('',#293,#235,#236);
#214=AXIS2_PLACEMENT_3D('',#294,#237,#238);
#215=AXIS2_PLACEMENT_3D('',#307,#245,#246);
#216=AXIS2_PLACEMENT_3D('',#320,#253,#254);
#217=AXIS2_PLACEMENT_3D('',#321,#255,#256);
#218=AXIS2_PLACEMENT_3D('',#322,#257,#258);
#219=AXIS2_PLACEMENT_3D('',#324,#259,#260);
#220=AXIS2_PLACEMENT_3D('',#325,#261,#262);
#221=AXIS2_PLACEMENT_3D('',#326,#263,#264);
#222=AXIS2_PLACEMENT_3D('',#327,#265,#266);
#223=AXIS2_PLACEMENT_3D('',#328,#267,#268);
#224=AXIS2_PLACEMENT_3D('',#329,#269,#270);
#225=AXIS2_PLACEMENT_3D('',#331,#271,#272);
#226=AXIS2_PLACEMENT_3D('',#333,#273,#274);
#227=AXIS2_PLACEMENT_3D('',#334,#275,#276);
#228=AXIS2_PLACEMENT_3D('',#336,#278,#279);
#229=AXIS2_PLACEMENT_3D('',#339,#281,#282);
#230=AXIS2_PLACEMENT_3D('',#340,#283,#284);
#231=AXIS2_PLACEMENT_3D('',#341,#285,#286);
#232=AXIS2_PLACEMENT_3D('',#342,#287,#288);
#233=AXIS2_PLACEMENT_3D('',#343,#289,#290);
#234=AXIS2_PLACEMENT_3D('',#344,#291,#292);
#235=DIRECTION('axis',(0.,0.,1.));
#236=DIRECTION('refdir',(1.,0.,0.));
#237=DIRECTION('center_axis',(-0.707106781186548,0.,-0.707106781186547));
#238=DIRECTION('ref_axis',(-0.707106781186547,0.,0.707106781186548));
#239=DIRECTION('',(0.707106781186547,0.,-0.707106781186548));
#240=DIRECTION('',(0.,1.,0.));
#241=DIRECTION('',(-0.707106781186547,0.,0.707106781186548));
#242=DIRECTION('',(0.,-1.,0.));
#243=DIRECTION('',(0.707106781186547,0.,-0.707106781186548));
#244=DIRECTION('',(0.,-1.,0.));
#245=DIRECTION('center_axis',(1.,0.,0.));
#246=DIRECTION('ref_axis',(0.,0.,-1.));
#247=DIRECTION('',(0.,0.,1.));
#248=DIRECTION('',(0.,1.,0.));
#249=DIRECTION('',(0.,0.,1.));
#250=DIRECTION('',(0.,1.,0.));
#251=DIRECTION('',(0.,0.,-1.));
#252=DIRECTION('',(0.,-1.,0.));
#253=DIRECTION('center_axis',(0.,1.,0.));
#254=DIRECTION('ref_axis',(0.,0.,1.));
#255=DIRECTION('center_axis',(0.,1.,0.));
#256=DIRECTION('ref_axis',(1.,0.,0.));
#257=DIRECTION('center_axis',(0.,1.,0.));
#258=DIRECTION('ref_axis',(1.,0.,0.));
#259=DIRECTION('center_axis',(0.,-1.,0.));
#260=DIRECTION('ref_axis',(0.707106781186547,0.,0.707106781186548));
#261=DIRECTION('center_axis',(0.,1.,0.));
#262=DIRECTION('ref_axis',(1.,0.,0.));
#263=DIRECTION('center_axis',(0.,1.,0.));
#264=DIRECTION('ref_axis',(1.,0.,0.));
#265=DIRECTION('center_axis',(0.,1.,0.));
#266=DIRECTION('ref_axis',(0.,0.,1.));
#267=DIRECTION('center_axis',(0.,1.,0.));
#268=DIRECTION('ref_axis',(1.,0.,0.));
#269=DIRECTION('center_axis',(0.,1.,0.));
#270=DIRECTION('ref_axis',(0.707106781186547,0.,0.707106781186548));
#271=DIRECTION('center_axis',(0.,1.,0.));
#272=DIRECTION('ref_axis',(0.707106781186547,0.,0.707106781186548));
#273=DIRECTION('center_axis',(0.,1.,0.));
#274=DIRECTION('ref_axis',(0.707106781186547,0.,0.707106781186548));
#275=DIRECTION('center_axis',(0.,1.,0.));
#276=DIRECTION('ref_axis',(0.707106781186547,0.,0.707106781186548));
#277=DIRECTION('',(0.,-1.,0.));
#278=DIRECTION('center_axis',(0.,1.,0.));
#279=DIRECTION('ref_axis',(0.707106781186547,0.,0.707106781186548));
#280=DIRECTION('',(0.,-1.,0.));
#281=DIRECTION('center_axis',(0.,1.,0.));
#282=DIRECTION('ref_axis',(0.707106781186547,0.,0.707106781186548));
#283=DIRECTION('center_axis',(0.,1.,0.));
#284=DIRECTION('ref_axis',(1.,0.,0.));
#285=DIRECTION('center_axis',(0.,1.,0.));
#286=DIRECTION('ref_axis',(1.,0.,0.));
#287=DIRECTION('center_axis',(0.,-1.,0.));
#288=DIRECTION('ref_axis',(0.,0.,-1.));
#289=DIRECTION('center_axis',(0.,1.,0.));
#290=DIRECTION('ref_axis',(1.,0.,0.));
#291=DIRECTION('center_axis',(0.,1.,0.));
#292=DIRECTION('ref_axis',(1.,0.,0.));
#293=CARTESIAN_POINT('',(0.,0.,0.));
#294=CARTESIAN_POINT('Origin',(147.785317267988,0.,-147.785317267988));
#295=CARTESIAN_POINT('',(120.208152801713,27.,-120.208152801713));
#296=CARTESIAN_POINT('',(144.249783362056,27.,-144.249783362056));
#297=CARTESIAN_POINT('',(116.392658633994,27.,-116.392658633994));
#298=CARTESIAN_POINT('',(120.208152801713,0.,-120.208152801713));
#299=CARTESIAN_POINT('',(120.208152801713,13.5,-120.208152801713));
#300=CARTESIAN_POINT('',(147.785317267988,0.,-147.785317267988));
#301=CARTESIAN_POINT('',(126.142658633994,-3.50824924696707E-15,-126.142658633994));
#302=CARTESIAN_POINT('',(147.785317267988,2.,-147.785317267988));
#303=CARTESIAN_POINT('',(147.785317267988,0.999999999999997,-147.785317267988));
#304=CARTESIAN_POINT('',(144.249783362056,2.,-144.249783362056));
#305=CARTESIAN_POINT('',(124.892658633994,2.,-124.892658633994));
#306=CARTESIAN_POINT('',(144.249783362056,14.5,-144.249783362056));
#307=CARTESIAN_POINT('Origin',(0.,0.,-170.));
#308=CARTESIAN_POINT('',(0.,27.,-204.));
#309=CARTESIAN_POINT('',(0.,27.,-170.));
#310=CARTESIAN_POINT('',(0.,27.,-85.));
#311=CARTESIAN_POINT('',(0.,2.,-204.));
#312=CARTESIAN_POINT('',(0.,14.5,-204.));
#313=CARTESIAN_POINT('',(0.,2.,-209.));
#314=CARTESIAN_POINT('',(0.,2.,-85.));
#315=CARTESIAN_POINT('',(0.,0.,-209.));
#316=CARTESIAN_POINT('',(0.,0.999999999999997,-209.));
#317=CARTESIAN_POINT('',(0.,0.,-170.));
#318=CARTESIAN_POINT('',(0.,-3.50824924696707E-15,-85.));
#319=CARTESIAN_POINT('',(0.,13.5,-170.));
#320=CARTESIAN_POINT('Origin',(170.,27.,0.));
#321=CARTESIAN_POINT('Origin',(0.,27.,0.));
#322=CARTESIAN_POINT('Origin',(0.,27.,0.));
#323=CARTESIAN_POINT('',(63.342683743311,27.,-177.064901793942));
#324=CARTESIAN_POINT('Origin',(70.4137515551764,27.,-169.993833982077));
#325=CARTESIAN_POINT('Origin',(0.,14.5,0.));
#326=CARTESIAN_POINT('Origin',(0.,2.,0.));
#327=CARTESIAN_POINT('Origin',(204.,2.,0.));
#328=CARTESIAN_POINT('Origin',(0.,2.,0.));
#329=CARTESIAN_POINT('Origin',(70.4137515551764,17.,-169.993833982077));
#330=CARTESIAN_POINT('',(63.342683743311,17.,-177.064901793942));
#331=CARTESIAN_POINT('Origin',(70.4137515551764,17.,-169.993833982077));
#332=CARTESIAN_POINT('',(66.5246642586504,17.,-173.882921278603));
#333=CARTESIAN_POINT('Origin',(70.4137515551764,17.,-169.993833982077));
#334=CARTESIAN_POINT('Origin',(70.4137515551764,22.,-169.993833982077));
#335=CARTESIAN_POINT('',(63.342683743311,22.,-177.064901793942));
#336=CARTESIAN_POINT('Origin',(70.4137515551764,-564.757551705088,-169.993833982077));
#337=CARTESIAN_POINT('',(66.5246642586504,0.,-173.882921278603));
#338=CARTESIAN_POINT('',(66.5246642586504,-564.757551705088,-173.882921278603));
#339=CARTESIAN_POINT('Origin',(70.4137515551764,0.,-169.993833982077));
#340=CARTESIAN_POINT('Origin',(0.,13.5,0.));
#341=CARTESIAN_POINT('Origin',(0.,-2.02615701994091E-14,0.));
#342=CARTESIAN_POINT('Origin',(209.,-3.50824924696707E-15,0.));
#343=CARTESIAN_POINT('Origin',(0.,-3.46944695195361E-15,0.));
#344=CARTESIAN_POINT('Origin',(0.,0.999999999999997,0.));
#345=UNCERTAINTY_MEASURE_WITH_UNIT(LENGTH_MEASURE(0.01),#349,
'DISTANCE_ACCURACY_VALUE',
'Maximum model space distance between geometric entities at asserted c
onnectivities');
#346=UNCERTAINTY_MEASURE_WITH_UNIT(LENGTH_MEASURE(0.01),#349,
'DISTANCE_ACCURACY_VALUE',
'Maximum model space distance between geometric entities at asserted c
onnectivities');
#347=(
GEOMETRIC_REPRESENTATION_CONTEXT(3)
GLOBAL_UNCERTAINTY_ASSIGNED_CONTEXT((#345))
GLOBAL_UNIT_ASSIGNED_CONTEXT((#349,#351,#352))
REPRESENTATION_CONTEXT('','3D')
);
#348=(
GEOMETRIC_REPRESENTATION_CONTEXT(3)
GLOBAL_UNCERTAINTY_ASSIGNED_CONTEXT((#346))
GLOBAL_UNIT_ASSIGNED_CONTEXT((#349,#351,#352))
REPRESENTATION_CONTEXT('','3D')
);
#349=(
LENGTH_UNIT()
NAMED_UNIT(*)
SI_UNIT(.MILLI.,.METRE.)
);
#350=(
LENGTH_UNIT()
NAMED_UNIT(*)
SI_UNIT(.CENTI.,.METRE.)
);
#351=(
NAMED_UNIT(*)
PLANE_ANGLE_UNIT()
SI_UNIT($,.RADIAN.)
);
#352=(
NAMED_UNIT(*)
SI_UNIT($,.STERADIAN.)
SOLID_ANGLE_UNIT()
);
#353=SHAPE_DEFINITION_REPRESENTATION(#354,#355);
#354=PRODUCT_DEFINITION_SHAPE('',$,#357);
#355=SHAPE_REPRESENTATION('',(#213),#347);
#356=PRODUCT_DEFINITION_CONTEXT('part definition',#361,'design');
#357=PRODUCT_DEFINITION(
'DMF 01 33 \X2\041104300440043004310430043D\X0\ \X2\041E043F043E0440043D043E0435\X0\ 
\X2\043A043E043B044C0446043E\X0\ \X2\041A041E0420041C0410\X0\ v2.5',
'DMF 01 33 \X2\041104300440043004310430043D\X0\ \X2\041E043F043E0440043D043E0435\X0\ 
\X2\043A043E043B044C0446043E\X0\ \X2\041A041E0420041C0410\X0\ v2.5',#358,
#356);
#358=PRODUCT_DEFINITION_FORMATION('',$,#363);
#359=PRODUCT_RELATED_PRODUCT_CATEGORY(
'DMF 01 33 \X2\041104300440043004310430043D\X0\ \X2\041E043F043E0440043D043E0435\X0\ 
\X2\043A043E043B044C0446043E\X0\ \X2\041A041E0420041C0410\X0\ v2.5',
'DMF 01 33 \X2\041104300440043004310430043D\X0\ \X2\041E043F043E0440043D043E0435\X0\ 
\X2\043A043E043B044C0446043E\X0\ \X2\041A041E0420041C0410\X0\ v2.5',(#363));
#360=APPLICATION_PROTOCOL_DEFINITION('international standard',
'automotive_design',2009,#361);
#361=APPLICATION_CONTEXT(
'Core Data for Automotive Mechanical Design Process');
#362=PRODUCT_CONTEXT('part definition',#361,'mechanical');
#363=PRODUCT(
'DMF 01 33 \X2\041104300440043004310430043D\X0\ \X2\041E043F043E0440043D043E0435\X0\ 
\X2\043A043E043B044C0446043E\X0\ \X2\041A041E0420041C0410\X0\ v2.5',
'DMF 01 33 \X2\041104300440043004310430043D\X0\ \X2\041E043F043E0440043D043E0435\X0\ 
\X2\043A043E043B044C0446043E\X0\ \X2\041A041E0420041C0410\X0\ v2.5',$,(#362));
#364=PRESENTATION_STYLE_ASSIGNMENT((#365));
#365=SURFACE_STYLE_USAGE(.BOTH.,#368);
#366=SURFACE_STYLE_RENDERING_WITH_PROPERTIES($,#372,(#367));
#367=SURFACE_STYLE_TRANSPARENT(0.);
#368=SURFACE_SIDE_STYLE('',(#369,#366));
#369=SURFACE_STYLE_FILL_AREA(#370);
#370=FILL_AREA_STYLE('',(#371));
#371=FILL_AREA_STYLE_COLOUR('',#372);
#372=COLOUR_RGB('',0.749019607843137,0.749019607843137,0.749019607843137);
ENDSEC;
END-ISO-10303-21;
