ISO-10303-21;
HEADER;
/* Generated by software containing ST-Developer
 * from STEP Tools, Inc. (www.steptools.com) 
 */

FILE_DESCRIPTION(
/* description */ (''),
/* implementation_level */ '2;1');

FILE_NAME(
/* name */ 'DMF 01 33 drum stern ring 1s4.stp',
/* time_stamp */ '2026-06-09T17:47:15+03:00',
/* author */ ('admin'),
/* organization */ (''),
/* preprocessor_version */ 'ST-DEVELOPER v20.1',
/* originating_system */ 'Autodesk Inventor 2026',
/* authorisation */ '');

FILE_SCHEMA (('AUTOMOTIVE_DESIGN { 1 0 10303 214 3 1 1 }'));
ENDSEC;

DATA;
#10=MECHANICAL_DESIGN_GEOMETRIC_PRESENTATION_REPRESENTATION('',(#13),#432);
#11=SHAPE_REPRESENTATION_RELATIONSHIP('SRR','None',#439,#12);
#12=ADVANCED_BREP_SHAPE_REPRESENTATION('',(#14),#431);
#13=STYLED_ITEM('',(#448),#14);
#14=MANIFOLD_SOLID_BREP('Solid2',#239);
#15=CYLINDRICAL_SURFACE('',#269,209.);
#16=CYLINDRICAL_SURFACE('',#279,10.);
#17=CYLINDRICAL_SURFACE('',#280,5.5);
#18=CYLINDRICAL_SURFACE('',#284,10.);
#19=CYLINDRICAL_SURFACE('',#285,5.5);
#20=CYLINDRICAL_SURFACE('',#288,204.);
#21=CYLINDRICAL_SURFACE('',#289,170.);
#22=FACE_BOUND('',#59,.T.);
#23=FACE_BOUND('',#60,.T.);
#24=FACE_BOUND('',#63,.T.);
#25=FACE_BOUND('',#64,.T.);
#26=FACE_BOUND('',#66,.T.);
#27=FACE_BOUND('',#70,.T.);
#28=CIRCLE('',#265,209.);
#29=CIRCLE('',#266,170.);
#30=CIRCLE('',#267,5.5);
#31=CIRCLE('',#268,5.5);
#32=CIRCLE('',#270,209.);
#33=CIRCLE('',#272,170.);
#34=CIRCLE('',#273,204.);
#35=CIRCLE('',#274,10.);
#36=CIRCLE('',#275,10.);
#37=CIRCLE('',#277,10.);
#38=CIRCLE('',#278,5.5);
#39=CIRCLE('',#282,10.);
#40=CIRCLE('',#283,5.5);
#41=CIRCLE('',#287,204.);
#42=FACE_OUTER_BOUND('',#56,.T.);
#43=FACE_OUTER_BOUND('',#57,.T.);
#44=FACE_OUTER_BOUND('',#58,.T.);
#45=FACE_OUTER_BOUND('',#61,.T.);
#46=FACE_OUTER_BOUND('',#62,.T.);
#47=FACE_OUTER_BOUND('',#65,.T.);
#48=FACE_OUTER_BOUND('',#67,.T.);
#49=FACE_OUTER_BOUND('',#68,.T.);
#50=FACE_OUTER_BOUND('',#69,.T.);
#51=FACE_OUTER_BOUND('',#71,.T.);
#52=FACE_OUTER_BOUND('',#72,.T.);
#53=FACE_OUTER_BOUND('',#73,.T.);
#54=FACE_OUTER_BOUND('',#74,.T.);
#55=FACE_OUTER_BOUND('',#75,.T.);
#56=EDGE_LOOP('',(#158,#159,#160,#161,#162,#163));
#57=EDGE_LOOP('',(#164,#165,#166,#167,#168,#169));
#58=EDGE_LOOP('',(#170,#171,#172,#173));
#59=EDGE_LOOP('',(#174));
#60=EDGE_LOOP('',(#175));
#61=EDGE_LOOP('',(#176,#177,#178,#179));
#62=EDGE_LOOP('',(#180,#181,#182,#183));
#63=EDGE_LOOP('',(#184));
#64=EDGE_LOOP('',(#185));
#65=EDGE_LOOP('',(#186));
#66=EDGE_LOOP('',(#187));
#67=EDGE_LOOP('',(#188,#189,#190,#191));
#68=EDGE_LOOP('',(#192,#193,#194,#195));
#69=EDGE_LOOP('',(#196));
#70=EDGE_LOOP('',(#197));
#71=EDGE_LOOP('',(#198,#199,#200,#201));
#72=EDGE_LOOP('',(#202,#203,#204,#205));
#73=EDGE_LOOP('',(#206,#207,#208,#209));
#74=EDGE_LOOP('',(#210,#211,#212,#213));
#75=EDGE_LOOP('',(#214,#215,#216,#217));
#76=LINE('',#368,#92);
#77=LINE('',#370,#93);
#78=LINE('',#372,#94);
#79=LINE('',#374,#95);
#80=LINE('',#376,#96);
#81=LINE('',#377,#97);
#82=LINE('',#381,#98);
#83=LINE('',#383,#99);
#84=LINE('',#385,#100);
#85=LINE('',#387,#101);
#86=LINE('',#389,#102);
#87=LINE('',#390,#103);
#88=LINE('',#413,#104);
#89=LINE('',#415,#105);
#90=LINE('',#422,#106);
#91=LINE('',#424,#107);
#92=VECTOR('',#294,10.);
#93=VECTOR('',#295,10.);
#94=VECTOR('',#296,10.);
#95=VECTOR('',#297,10.);
#96=VECTOR('',#298,10.);
#97=VECTOR('',#299,10.);
#98=VECTOR('',#302,10.);
#99=VECTOR('',#303,10.);
#100=VECTOR('',#304,10.);
#101=VECTOR('',#305,10.);
#102=VECTOR('',#306,10.);
#103=VECTOR('',#307,10.);
#104=VECTOR('',#340,10.);
#105=VECTOR('',#343,5.5);
#106=VECTOR('',#352,10.);
#107=VECTOR('',#355,5.5);
#108=VERTEX_POINT('',#366);
#109=VERTEX_POINT('',#367);
#110=VERTEX_POINT('',#369);
#111=VERTEX_POINT('',#371);
#112=VERTEX_POINT('',#373);
#113=VERTEX_POINT('',#375);
#114=VERTEX_POINT('',#379);
#115=VERTEX_POINT('',#380);
#116=VERTEX_POINT('',#382);
#117=VERTEX_POINT('',#384);
#118=VERTEX_POINT('',#386);
#119=VERTEX_POINT('',#388);
#120=VERTEX_POINT('',#394);
#121=VERTEX_POINT('',#396);
#122=VERTEX_POINT('',#403);
#123=VERTEX_POINT('',#405);
#124=VERTEX_POINT('',#408);
#125=VERTEX_POINT('',#410);
#126=VERTEX_POINT('',#417);
#127=VERTEX_POINT('',#419);
#128=EDGE_CURVE('',#108,#109,#76,.T.);
#129=EDGE_CURVE('',#110,#108,#77,.T.);
#130=EDGE_CURVE('',#111,#110,#78,.T.);
#131=EDGE_CURVE('',#112,#111,#79,.T.);
#132=EDGE_CURVE('',#113,#112,#80,.T.);
#133=EDGE_CURVE('',#109,#113,#81,.T.);
#134=EDGE_CURVE('',#114,#115,#82,.T.);
#135=EDGE_CURVE('',#116,#114,#83,.T.);
#136=EDGE_CURVE('',#117,#116,#84,.T.);
#137=EDGE_CURVE('',#118,#117,#85,.T.);
#138=EDGE_CURVE('',#119,#118,#86,.T.);
#139=EDGE_CURVE('',#115,#119,#87,.T.);
#140=EDGE_CURVE('',#111,#118,#28,.T.);
#141=EDGE_CURVE('',#110,#119,#29,.T.);
#142=EDGE_CURVE('',#120,#120,#30,.T.);
#143=EDGE_CURVE('',#121,#121,#31,.T.);
#144=EDGE_CURVE('',#112,#117,#32,.T.);
#145=EDGE_CURVE('',#108,#115,#33,.T.);
#146=EDGE_CURVE('',#109,#114,#34,.T.);
#147=EDGE_CURVE('',#122,#122,#35,.T.);
#148=EDGE_CURVE('',#123,#123,#36,.T.);
#149=EDGE_CURVE('',#124,#124,#37,.T.);
#150=EDGE_CURVE('',#125,#125,#38,.T.);
#151=EDGE_CURVE('',#123,#124,#88,.T.);
#152=EDGE_CURVE('',#125,#121,#89,.T.);
#153=EDGE_CURVE('',#126,#126,#39,.T.);
#154=EDGE_CURVE('',#127,#127,#40,.T.);
#155=EDGE_CURVE('',#122,#126,#90,.T.);
#156=EDGE_CURVE('',#127,#120,#91,.T.);
#157=EDGE_CURVE('',#113,#116,#41,.T.);
#158=ORIENTED_EDGE('',*,*,#128,.F.);
#159=ORIENTED_EDGE('',*,*,#129,.F.);
#160=ORIENTED_EDGE('',*,*,#130,.F.);
#161=ORIENTED_EDGE('',*,*,#131,.F.);
#162=ORIENTED_EDGE('',*,*,#132,.F.);
#163=ORIENTED_EDGE('',*,*,#133,.F.);
#164=ORIENTED_EDGE('',*,*,#134,.F.);
#165=ORIENTED_EDGE('',*,*,#135,.F.);
#166=ORIENTED_EDGE('',*,*,#136,.F.);
#167=ORIENTED_EDGE('',*,*,#137,.F.);
#168=ORIENTED_EDGE('',*,*,#138,.F.);
#169=ORIENTED_EDGE('',*,*,#139,.F.);
#170=ORIENTED_EDGE('',*,*,#138,.T.);
#171=ORIENTED_EDGE('',*,*,#140,.F.);
#172=ORIENTED_EDGE('',*,*,#130,.T.);
#173=ORIENTED_EDGE('',*,*,#141,.T.);
#174=ORIENTED_EDGE('',*,*,#142,.T.);
#175=ORIENTED_EDGE('',*,*,#143,.T.);
#176=ORIENTED_EDGE('',*,*,#137,.T.);
#177=ORIENTED_EDGE('',*,*,#144,.F.);
#178=ORIENTED_EDGE('',*,*,#131,.T.);
#179=ORIENTED_EDGE('',*,*,#140,.T.);
#180=ORIENTED_EDGE('',*,*,#134,.T.);
#181=ORIENTED_EDGE('',*,*,#145,.F.);
#182=ORIENTED_EDGE('',*,*,#128,.T.);
#183=ORIENTED_EDGE('',*,*,#146,.T.);
#184=ORIENTED_EDGE('',*,*,#147,.T.);
#185=ORIENTED_EDGE('',*,*,#148,.T.);
#186=ORIENTED_EDGE('',*,*,#149,.T.);
#187=ORIENTED_EDGE('',*,*,#150,.F.);
#188=ORIENTED_EDGE('',*,*,#148,.F.);
#189=ORIENTED_EDGE('',*,*,#151,.T.);
#190=ORIENTED_EDGE('',*,*,#149,.F.);
#191=ORIENTED_EDGE('',*,*,#151,.F.);
#192=ORIENTED_EDGE('',*,*,#150,.T.);
#193=ORIENTED_EDGE('',*,*,#152,.T.);
#194=ORIENTED_EDGE('',*,*,#143,.F.);
#195=ORIENTED_EDGE('',*,*,#152,.F.);
#196=ORIENTED_EDGE('',*,*,#153,.T.);
#197=ORIENTED_EDGE('',*,*,#154,.F.);
#198=ORIENTED_EDGE('',*,*,#147,.F.);
#199=ORIENTED_EDGE('',*,*,#155,.T.);
#200=ORIENTED_EDGE('',*,*,#153,.F.);
#201=ORIENTED_EDGE('',*,*,#155,.F.);
#202=ORIENTED_EDGE('',*,*,#154,.T.);
#203=ORIENTED_EDGE('',*,*,#156,.T.);
#204=ORIENTED_EDGE('',*,*,#142,.F.);
#205=ORIENTED_EDGE('',*,*,#156,.F.);
#206=ORIENTED_EDGE('',*,*,#136,.T.);
#207=ORIENTED_EDGE('',*,*,#157,.F.);
#208=ORIENTED_EDGE('',*,*,#132,.T.);
#209=ORIENTED_EDGE('',*,*,#144,.T.);
#210=ORIENTED_EDGE('',*,*,#135,.T.);
#211=ORIENTED_EDGE('',*,*,#146,.F.);
#212=ORIENTED_EDGE('',*,*,#133,.T.);
#213=ORIENTED_EDGE('',*,*,#157,.T.);
#214=ORIENTED_EDGE('',*,*,#139,.T.);
#215=ORIENTED_EDGE('',*,*,#141,.F.);
#216=ORIENTED_EDGE('',*,*,#129,.T.);
#217=ORIENTED_EDGE('',*,*,#145,.T.);
#218=PLANE('',#262);
#219=PLANE('',#263);
#220=PLANE('',#264);
#221=PLANE('',#271);
#222=PLANE('',#276);
#223=PLANE('',#281);
#224=PLANE('',#286);
#225=ADVANCED_FACE('',(#42),#218,.F.);
#226=ADVANCED_FACE('',(#43),#219,.F.);
#227=ADVANCED_FACE('',(#44,#22,#23),#220,.T.);
#228=ADVANCED_FACE('',(#45),#15,.T.);
#229=ADVANCED_FACE('',(#46,#24,#25),#221,.T.);
#230=ADVANCED_FACE('',(#47,#26),#222,.T.);
#231=ADVANCED_FACE('',(#48),#16,.F.);
#232=ADVANCED_FACE('',(#49),#17,.F.);
#233=ADVANCED_FACE('',(#50,#27),#223,.T.);
#234=ADVANCED_FACE('',(#51),#18,.F.);
#235=ADVANCED_FACE('',(#52),#19,.F.);
#236=ADVANCED_FACE('',(#53),#224,.T.);
#237=ADVANCED_FACE('',(#54),#20,.T.);
#238=ADVANCED_FACE('',(#55),#21,.F.);
#239=CLOSED_SHELL('',(#225,#226,#227,#228,#229,#230,#231,#232,#233,#234,
#235,#236,#237,#238));
#240=DERIVED_UNIT_ELEMENT(#243,1.);
#241=DERIVED_UNIT_ELEMENT(#434,-3.);
#242=DIMENSIONAL_EXPONENTS(0.,1.,0.,0.,0.,0.,0.);
#243=(
CONVERSION_BASED_UNIT('gram',#245)
MASS_UNIT()
NAMED_UNIT(#242)
);
#244=(
MASS_UNIT()
NAMED_UNIT(*)
SI_UNIT(.KILO.,.GRAM.)
);
#245=MASS_MEASURE_WITH_UNIT(MASS_MEASURE(0.001),#244);
#246=DERIVED_UNIT((#240,#241));
#247=MEASURE_REPRESENTATION_ITEM('density measure',
POSITIVE_RATIO_MEASURE(1.),#246);
#248=PROPERTY_DEFINITION_REPRESENTATION(#253,#250);
#249=PROPERTY_DEFINITION_REPRESENTATION(#254,#251);
#250=REPRESENTATION('material name',(#252),#431);
#251=REPRESENTATION('density',(#247),#431);
#252=DESCRIPTIVE_REPRESENTATION_ITEM('Generic','Generic');
#253=PROPERTY_DEFINITION('material property','material name',#441);
#254=PROPERTY_DEFINITION('material property','density of part',#441);
#255=DATE_TIME_ROLE('creation_date');
#256=APPLIED_DATE_AND_TIME_ASSIGNMENT(#257,#255,(#441));
#257=DATE_AND_TIME(#258,#259);
#258=CALENDAR_DATE(2024,28,4);
#259=LOCAL_TIME(0,0,0.,#260);
#260=COORDINATED_UNIVERSAL_TIME_OFFSET(0,0,.BEHIND.);
#261=AXIS2_PLACEMENT_3D('',#364,#290,#291);
#262=AXIS2_PLACEMENT_3D('',#365,#292,#293);
#263=AXIS2_PLACEMENT_3D('',#378,#300,#301);
#264=AXIS2_PLACEMENT_3D('',#391,#308,#309);
#265=AXIS2_PLACEMENT_3D('',#392,#310,#311);
#266=AXIS2_PLACEMENT_3D('',#393,#312,#313);
#267=AXIS2_PLACEMENT_3D('',#395,#314,#315);
#268=AXIS2_PLACEMENT_3D('',#397,#316,#317);
#269=AXIS2_PLACEMENT_3D('',#398,#318,#319);
#270=AXIS2_PLACEMENT_3D('',#399,#320,#321);
#271=AXIS2_PLACEMENT_3D('',#400,#322,#323);
#272=AXIS2_PLACEMENT_3D('',#401,#324,#325);
#273=AXIS2_PLACEMENT_3D('',#402,#326,#327);
#274=AXIS2_PLACEMENT_3D('',#404,#328,#329);
#275=AXIS2_PLACEMENT_3D('',#406,#330,#331);
#276=AXIS2_PLACEMENT_3D('',#407,#332,#333);
#277=AXIS2_PLACEMENT_3D('',#409,#334,#335);
#278=AXIS2_PLACEMENT_3D('',#411,#336,#337);
#279=AXIS2_PLACEMENT_3D('',#412,#338,#339);
#280=AXIS2_PLACEMENT_3D('',#414,#341,#342);
#281=AXIS2_PLACEMENT_3D('',#416,#344,#345);
#282=AXIS2_PLACEMENT_3D('',#418,#346,#347);
#283=AXIS2_PLACEMENT_3D('',#420,#348,#349);
#284=AXIS2_PLACEMENT_3D('',#421,#350,#351);
#285=AXIS2_PLACEMENT_3D('',#423,#353,#354);
#286=AXIS2_PLACEMENT_3D('',#425,#356,#357);
#287=AXIS2_PLACEMENT_3D('',#426,#358,#359);
#288=AXIS2_PLACEMENT_3D('',#427,#360,#361);
#289=AXIS2_PLACEMENT_3D('',#428,#362,#363);
#290=DIRECTION('axis',(0.,0.,1.));
#291=DIRECTION('refdir',(1.,0.,0.));
#292=DIRECTION('center_axis',(-1.96015452673054E-16,0.,-1.));
#293=DIRECTION('ref_axis',(-1.,0.,1.96015452673054E-16));
#294=DIRECTION('',(1.,0.,-1.96015452673054E-16));
#295=DIRECTION('',(0.,1.,0.));
#296=DIRECTION('',(-1.,0.,1.96015452673054E-16));
#297=DIRECTION('',(0.,-1.,0.));
#298=DIRECTION('',(1.,0.,-1.96015452673054E-16));
#299=DIRECTION('',(0.,-1.,0.));
#300=DIRECTION('center_axis',(1.,0.,0.));
#301=DIRECTION('ref_axis',(0.,0.,-1.));
#302=DIRECTION('',(0.,0.,1.));
#303=DIRECTION('',(0.,1.,0.));
#304=DIRECTION('',(0.,0.,1.));
#305=DIRECTION('',(0.,1.,0.));
#306=DIRECTION('',(0.,0.,-1.));
#307=DIRECTION('',(0.,-1.,0.));
#308=DIRECTION('center_axis',(0.,-1.,0.));
#309=DIRECTION('ref_axis',(0.,0.,-1.));
#310=DIRECTION('center_axis',(0.,1.,0.));
#311=DIRECTION('ref_axis',(1.,0.,0.));
#312=DIRECTION('center_axis',(0.,1.,0.));
#313=DIRECTION('ref_axis',(1.,0.,0.));
#314=DIRECTION('center_axis',(0.,1.,0.));
#315=DIRECTION('ref_axis',(-1.00929365875014E-16,0.,1.));
#316=DIRECTION('center_axis',(0.,1.,0.));
#317=DIRECTION('ref_axis',(0.707106781186547,0.,0.707106781186548));
#318=DIRECTION('center_axis',(0.,1.,0.));
#319=DIRECTION('ref_axis',(1.,0.,0.));
#320=DIRECTION('center_axis',(0.,1.,0.));
#321=DIRECTION('ref_axis',(1.,0.,0.));
#322=DIRECTION('center_axis',(0.,1.,0.));
#323=DIRECTION('ref_axis',(0.,0.,1.));
#324=DIRECTION('center_axis',(0.,1.,0.));
#325=DIRECTION('ref_axis',(1.,0.,0.));
#326=DIRECTION('center_axis',(0.,1.,0.));
#327=DIRECTION('ref_axis',(1.,0.,0.));
#328=DIRECTION('center_axis',(0.,-1.,0.));
#329=DIRECTION('ref_axis',(-1.11022302462516E-16,0.,1.));
#330=DIRECTION('center_axis',(0.,-1.,0.));
#331=DIRECTION('ref_axis',(0.707106781186547,0.,0.707106781186548));
#332=DIRECTION('center_axis',(0.,1.,0.));
#333=DIRECTION('ref_axis',(0.707106781186547,0.,0.707106781186548));
#334=DIRECTION('center_axis',(0.,1.,0.));
#335=DIRECTION('ref_axis',(0.707106781186547,0.,0.707106781186548));
#336=DIRECTION('center_axis',(0.,1.,0.));
#337=DIRECTION('ref_axis',(0.707106781186547,0.,0.707106781186548));
#338=DIRECTION('center_axis',(0.,1.,0.));
#339=DIRECTION('ref_axis',(0.707106781186547,0.,0.707106781186548));
#340=DIRECTION('',(0.,-1.,0.));
#341=DIRECTION('center_axis',(0.,1.,0.));
#342=DIRECTION('ref_axis',(0.707106781186547,0.,0.707106781186548));
#343=DIRECTION('',(0.,-1.,0.));
#344=DIRECTION('center_axis',(0.,1.,0.));
#345=DIRECTION('ref_axis',(-1.11022302462516E-16,0.,1.));
#346=DIRECTION('center_axis',(0.,1.,0.));
#347=DIRECTION('ref_axis',(-1.11022302462516E-16,0.,1.));
#348=DIRECTION('center_axis',(0.,1.,0.));
#349=DIRECTION('ref_axis',(-1.00929365875014E-16,0.,1.));
#350=DIRECTION('center_axis',(0.,1.,0.));
#351=DIRECTION('ref_axis',(-1.11022302462516E-16,0.,1.));
#352=DIRECTION('',(0.,-1.,0.));
#353=DIRECTION('center_axis',(0.,1.,0.));
#354=DIRECTION('ref_axis',(-1.00929365875014E-16,0.,1.));
#355=DIRECTION('',(0.,-1.,0.));
#356=DIRECTION('center_axis',(0.,1.,0.));
#357=DIRECTION('ref_axis',(0.,0.,1.));
#358=DIRECTION('center_axis',(0.,1.,0.));
#359=DIRECTION('ref_axis',(1.,0.,0.));
#360=DIRECTION('center_axis',(0.,1.,0.));
#361=DIRECTION('ref_axis',(1.,0.,0.));
#362=DIRECTION('center_axis',(0.,1.,0.));
#363=DIRECTION('ref_axis',(1.,0.,0.));
#364=CARTESIAN_POINT('',(0.,0.,0.));
#365=CARTESIAN_POINT('Origin',(209.,0.,-4.09672296086683E-14));
#366=CARTESIAN_POINT('',(170.,27.,0.));
#367=CARTESIAN_POINT('',(204.,27.,0.));
#368=CARTESIAN_POINT('',(189.5,27.,-3.71449282815437E-14));
#369=CARTESIAN_POINT('',(170.,-2.02246780553284E-14,0.));
#370=CARTESIAN_POINT('',(170.,13.5,-3.33226269544192E-14));
#371=CARTESIAN_POINT('',(209.,-3.50824924696707E-15,0.));
#372=CARTESIAN_POINT('',(209.,-3.50824924696707E-15,-4.09672296086683E-14));
#373=CARTESIAN_POINT('',(209.,2.,0.));
#374=CARTESIAN_POINT('',(209.,0.999999999999997,-4.09672296086683E-14));
#375=CARTESIAN_POINT('',(204.,2.,0.));
#376=CARTESIAN_POINT('',(206.5,2.,-4.04771909769856E-14));
#377=CARTESIAN_POINT('',(204.,14.5,-3.9987152345303E-14));
#378=CARTESIAN_POINT('Origin',(0.,0.,-170.));
#379=CARTESIAN_POINT('',(0.,27.,-204.));
#380=CARTESIAN_POINT('',(0.,27.,-170.));
#381=CARTESIAN_POINT('',(0.,27.,-85.));
#382=CARTESIAN_POINT('',(0.,2.,-204.));
#383=CARTESIAN_POINT('',(0.,14.5,-204.));
#384=CARTESIAN_POINT('',(0.,2.,-209.));
#385=CARTESIAN_POINT('',(0.,2.,-85.));
#386=CARTESIAN_POINT('',(0.,0.,-209.));
#387=CARTESIAN_POINT('',(0.,0.999999999999997,-209.));
#388=CARTESIAN_POINT('',(0.,0.,-170.));
#389=CARTESIAN_POINT('',(0.,-3.50824924696707E-15,-85.));
#390=CARTESIAN_POINT('',(0.,13.5,-170.));
#391=CARTESIAN_POINT('Origin',(209.,-3.50824924696707E-15,0.));
#392=CARTESIAN_POINT('Origin',(0.,-3.46944695195361E-15,0.));
#393=CARTESIAN_POINT('Origin',(0.,-2.02615701994091E-14,0.));
#394=CARTESIAN_POINT('',(169.993833982077,0.,-75.9137515551766));
#395=CARTESIAN_POINT('Origin',(169.993833982077,0.,-70.4137515551766));
#396=CARTESIAN_POINT('',(66.5246642586504,0.,-173.882921278603));
#397=CARTESIAN_POINT('Origin',(70.4137515551764,0.,-169.993833982077));
#398=CARTESIAN_POINT('Origin',(0.,0.999999999999997,0.));
#399=CARTESIAN_POINT('Origin',(0.,2.,0.));
#400=CARTESIAN_POINT('Origin',(170.,27.,0.));
#401=CARTESIAN_POINT('Origin',(0.,27.,0.));
#402=CARTESIAN_POINT('Origin',(0.,27.,0.));
#403=CARTESIAN_POINT('',(169.993833982077,27.,-80.4137515551766));
#404=CARTESIAN_POINT('Origin',(169.993833982077,27.,-70.4137515551766));
#405=CARTESIAN_POINT('',(63.342683743311,27.,-177.064901793942));
#406=CARTESIAN_POINT('Origin',(70.4137515551764,27.,-169.993833982077));
#407=CARTESIAN_POINT('Origin',(70.4137515551764,17.,-169.993833982077));
#408=CARTESIAN_POINT('',(63.342683743311,17.,-177.064901793942));
#409=CARTESIAN_POINT('Origin',(70.4137515551764,17.,-169.993833982077));
#410=CARTESIAN_POINT('',(66.5246642586504,17.,-173.882921278603));
#411=CARTESIAN_POINT('Origin',(70.4137515551764,17.,-169.993833982077));
#412=CARTESIAN_POINT('Origin',(70.4137515551764,22.,-169.993833982077));
#413=CARTESIAN_POINT('',(63.342683743311,22.,-177.064901793942));
#414=CARTESIAN_POINT('Origin',(70.4137515551764,-564.757551705088,-169.993833982077));
#415=CARTESIAN_POINT('',(66.5246642586504,-564.757551705088,-173.882921278603));
#416=CARTESIAN_POINT('Origin',(169.993833982077,17.,-70.4137515551766));
#417=CARTESIAN_POINT('',(169.993833982077,17.,-80.4137515551766));
#418=CARTESIAN_POINT('Origin',(169.993833982077,17.,-70.4137515551766));
#419=CARTESIAN_POINT('',(169.993833982077,17.,-75.9137515551766));
#420=CARTESIAN_POINT('Origin',(169.993833982077,17.,-70.4137515551766));
#421=CARTESIAN_POINT('Origin',(169.993833982077,22.,-70.4137515551766));
#422=CARTESIAN_POINT('',(169.993833982077,22.,-80.4137515551766));
#423=CARTESIAN_POINT('Origin',(169.993833982077,-564.757551705088,-70.4137515551766));
#424=CARTESIAN_POINT('',(169.993833982077,-564.757551705088,-75.9137515551766));
#425=CARTESIAN_POINT('Origin',(204.,2.,0.));
#426=CARTESIAN_POINT('Origin',(0.,2.,0.));
#427=CARTESIAN_POINT('Origin',(0.,14.5,0.));
#428=CARTESIAN_POINT('Origin',(0.,13.5,0.));
#429=UNCERTAINTY_MEASURE_WITH_UNIT(LENGTH_MEASURE(0.01),#433,
'DISTANCE_ACCURACY_VALUE',
'Maximum model space distance between geometric entities at asserted c
onnectivities');
#430=UNCERTAINTY_MEASURE_WITH_UNIT(LENGTH_MEASURE(0.01),#433,
'DISTANCE_ACCURACY_VALUE',
'Maximum model space distance between geometric entities at asserted c
onnectivities');
#431=(
GEOMETRIC_REPRESENTATION_CONTEXT(3)
GLOBAL_UNCERTAINTY_ASSIGNED_CONTEXT((#429))
GLOBAL_UNIT_ASSIGNED_CONTEXT((#433,#435,#436))
REPRESENTATION_CONTEXT('','3D')
);
#432=(
GEOMETRIC_REPRESENTATION_CONTEXT(3)
GLOBAL_UNCERTAINTY_ASSIGNED_CONTEXT((#430))
GLOBAL_UNIT_ASSIGNED_CONTEXT((#433,#435,#436))
REPRESENTATION_CONTEXT('','3D')
);
#433=(
LENGTH_UNIT()
NAMED_UNIT(*)
SI_UNIT(.MILLI.,.METRE.)
);
#434=(
LENGTH_UNIT()
NAMED_UNIT(*)
SI_UNIT(.CENTI.,.METRE.)
);
#435=(
NAMED_UNIT(*)
PLANE_ANGLE_UNIT()
SI_UNIT($,.RADIAN.)
);
#436=(
NAMED_UNIT(*)
SI_UNIT($,.STERADIAN.)
SOLID_ANGLE_UNIT()
);
#437=SHAPE_DEFINITION_REPRESENTATION(#438,#439);
#438=PRODUCT_DEFINITION_SHAPE('',$,#441);
#439=SHAPE_REPRESENTATION('',(#261),#431);
#440=PRODUCT_DEFINITION_CONTEXT('part definition',#445,'design');
#441=PRODUCT_DEFINITION(
'DMF 01 33 \X2\041104300440043004310430043D\X0\ \X2\041E043F043E0440043D043E0435\X0\ 
\X2\043A043E043B044C0446043E\X0\ \X2\041A041E0420041C0410\X0\ v2.5',
'DMF 01 33 \X2\041104300440043004310430043D\X0\ \X2\041E043F043E0440043D043E0435\X0\ 
\X2\043A043E043B044C0446043E\X0\ \X2\041A041E0420041C0410\X0\ v2.5',#442,
#440);
#442=PRODUCT_DEFINITION_FORMATION('',$,#447);
#443=PRODUCT_RELATED_PRODUCT_CATEGORY(
'DMF 01 33 \X2\041104300440043004310430043D\X0\ \X2\041E043F043E0440043D043E0435\X0\ 
\X2\043A043E043B044C0446043E\X0\ \X2\041A041E0420041C0410\X0\ v2.5',
'DMF 01 33 \X2\041104300440043004310430043D\X0\ \X2\041E043F043E0440043D043E0435\X0\ 
\X2\043A043E043B044C0446043E\X0\ \X2\041A041E0420041C0410\X0\ v2.5',(#447));
#444=APPLICATION_PROTOCOL_DEFINITION('international standard',
'automotive_design',2009,#445);
#445=APPLICATION_CONTEXT(
'Core Data for Automotive Mechanical Design Process');
#446=PRODUCT_CONTEXT('part definition',#445,'mechanical');
#447=PRODUCT(
'DMF 01 33 \X2\041104300440043004310430043D\X0\ \X2\041E043F043E0440043D043E0435\X0\ 
\X2\043A043E043B044C0446043E\X0\ \X2\041A041E0420041C0410\X0\ v2.5',
'DMF 01 33 \X2\041104300440043004310430043D\X0\ \X2\041E043F043E0440043D043E0435\X0\ 
\X2\043A043E043B044C0446043E\X0\ \X2\041A041E0420041C0410\X0\ v2.5',$,(#446));
#448=PRESENTATION_STYLE_ASSIGNMENT((#449));
#449=SURFACE_STYLE_USAGE(.BOTH.,#452);
#450=SURFACE_STYLE_RENDERING_WITH_PROPERTIES($,#456,(#451));
#451=SURFACE_STYLE_TRANSPARENT(0.);
#452=SURFACE_SIDE_STYLE('',(#453,#450));
#453=SURFACE_STYLE_FILL_AREA(#454);
#454=FILL_AREA_STYLE('',(#455));
#455=FILL_AREA_STYLE_COLOUR('',#456);
#456=COLOUR_RGB('',0.749019607843137,0.749019607843137,0.749019607843137);
ENDSEC;
END-ISO-10303-21;
